<svg id="Layer_1" data-name="Layer 1" xmlns="http://www.w3.org/2000/svg" viewBox="0 0 914 586.86"><defs><style>.cls-1{fill:#165baa;}.cls-2{fill:#0b1354;}.cls-3{fill:#ffa4b6;}.cls-4{fill:#f4e1e2;}</style></defs><path class="cls-1" d="M336.66,668.59c-38.49,0-74.42-1.73-106.75-5.22-89.43-9.66-140.94-31.88-145-62.59s39.77-65.67,123.53-98.45c82.92-32.45,195.32-59.24,316.5-75.42s236.67-19.83,325.19-10.28c89.43,9.66,140.94,31.88,145,62.59s-39.77,65.67-123.53,98.45c-82.92,32.45-195.32,59.24-316.5,75.42C478.19,663.36,403.56,668.59,336.66,668.59Zm406.67-253c-66.7,0-141.13,5.21-217.88,15.46-120.85,16.14-232.9,42.83-315.52,75.17C129.34,537.79,85.28,572,89,600.22s55.27,49.68,141.32,59c88.2,9.53,203.34,5.88,324.19-10.26s232.9-42.83,315.52-75.17c80.59-31.54,124.65-65.79,120.89-94s-55.27-49.68-141.32-59C817.45,417.34,781.66,415.62,743.33,415.62Z" transform="translate(-83 -246.57)"/><ellipse class="cls-2" cx="457" cy="293.43" rx="381.2" ry="293.43"/><path class="cls-1" d="M135.27,484.63l1.26,6.37a1.18,1.18,0,0,0,.69.86l6,2.57a1.19,1.19,0,0,1,.1,2.13l-5.66,3.16a1.19,1.19,0,0,0-.61.92l-.6,6.46a1.19,1.19,0,0,1-2,.76l-4.76-4.41a1.17,1.17,0,0,0-1.06-.29l-6.34,1.42a1.19,1.19,0,0,1-1.33-1.66l2.72-5.88a1.18,1.18,0,0,0-.05-1.11l-3.31-5.58a1.19,1.19,0,0,1,1.17-1.78l6.44.77a1.18,1.18,0,0,0,1-.39l4.29-4.87A1.18,1.18,0,0,1,135.27,484.63Z" transform="translate(-83 -246.57)"/><path class="cls-1" d="M920.11,664.88l4.56,4.73a1.22,1.22,0,0,0,1.07.35l6.48-1.07a1.2,1.2,0,0,1,1.25,1.75l-3.09,5.8a1.21,1.21,0,0,0,0,1.11l3,5.84a1.2,1.2,0,0,1-1.28,1.73L925.66,684a1.19,1.19,0,0,0-1.07.34L920,689a1.2,1.2,0,0,1-2.05-.67l-.91-6.51a1.21,1.21,0,0,0-.65-.91L910.5,678a1.2,1.2,0,0,1,0-2.16l5.91-2.87a1.21,1.21,0,0,0,.66-.9l1-6.5A1.2,1.2,0,0,1,920.11,664.88Z" transform="translate(-83 -246.57)"/><path class="cls-3" d="M681.89,458.33c-14.74,2.84-18.82,7.36-21.16,25.1a1.44,1.44,0,0,1-2.85,0c-2.34-17.74-6.42-22.26-21.16-25.1a1.43,1.43,0,0,1,0-2.81c14.74-2.85,18.82-7.36,21.16-25.1a1.44,1.44,0,0,1,2.85,0c2.34,17.74,6.42,22.25,21.16,25.1A1.43,1.43,0,0,1,681.89,458.33Z" transform="translate(-83 -246.57)"/><path class="cls-3" d="M634.12,426c-6.9,1.33-8.81,3.44-9.91,11.75a.67.67,0,0,1-1.33,0c-1.1-8.31-3-10.42-9.91-11.75a.67.67,0,0,1,0-1.32c6.9-1.33,8.81-3.45,9.91-11.75a.67.67,0,0,1,1.33,0c1.1,8.3,3,10.42,9.91,11.75A.67.67,0,0,1,634.12,426Z" transform="translate(-83 -246.57)"/><path class="cls-1" d="M919.41,511.55c.21,1.65.4,3.31.57,5,48.89,23.19,74.87,47.5,72.68,69.16-2.31,23-36.22,42.53-94.75,55.53q-20.35,4.53-44.59,7.95c-87.85,12.35-203.05,12.41-324.35.17S294.8,614,211.19,584.36A544,544,0,0,1,160,563.48c-48.89-23.19-74.87-47.5-72.68-69.16,2.31-23,36.22-42.53,94.75-55.53.77-1.62,1.58-3.23,2.39-4.84-63.15,13.49-98.74,34.31-101.33,59.95-2.44,24.17,24.71,50,77.44,74.55q21.74,10.11,49.19,19.87c83.93,29.77,197.13,52.92,318.76,65.2,60.49,6.1,119.48,9.15,174.34,9.15,55.45,0,106.7-3.11,151-9.35q22.47-3.15,41.62-7.27c63.15-13.49,98.74-34.31,101.33-59.95C999.29,561.93,972.14,536.08,919.41,511.55Z" transform="translate(-83 -246.57)"/><path class="cls-4" d="M729.83,561.89a140.18,140.18,0,0,0-3.91-20.59,108.2,108.2,0,0,0-6.59-18.12,38.35,38.35,0,0,0-9.47-13,20,20,0,0,0-13.38-4.73,19.58,19.58,0,0,0-13.39,5.35q-6,5.35-6,15.65,0,12.76,7.21,21.21a57.64,57.64,0,0,0,17.5,13.8,98.4,98.4,0,0,0,19.36,7.82q2.87,14,1.64,32.54a209.6,209.6,0,0,1-6.17,37.89,152.33,152.33,0,0,1-14,35.83,82.34,82.34,0,0,1-22.85,26.77,52,52,0,0,1-31.92,10.29q-13.59,0-22-8.44a45.77,45.77,0,0,1-10.12-15.64q20.78-17.79,31.32-38.31Q659,627,659,603.9a83.58,83.58,0,0,0-1-12.77A25.23,25.23,0,0,0,653.64,580a11,11,0,0,0-9.47-4.53q-9.06,0-19.77,8.24t-20.38,22a129.71,129.71,0,0,0-15.86,31.09A105.76,105.76,0,0,0,582,672.67c0,10,1.15,18.38,3.4,25.37a76.21,76.21,0,0,1-14.72,10.26q-12.15,6.39-23.27,6.38-10.3,0-16.06-7.82t-5.77-26.77a129.43,129.43,0,0,1,8.86-46.34,222.7,222.7,0,0,1,23.88-45.5A380.48,380.48,0,0,1,592.49,545q19.14-21,39.74-39.53l-8.65-4.12-5.35,7.82A53.33,53.33,0,0,1,602.58,518a51.73,51.73,0,0,1-16.89,2.68q-9.06,0-15.24-3.71t-11.94-7.41a24.54,24.54,0,0,0-13.59-3.71q-10.71,0-20.59,8.65t-18.12,33.36l-1.51,5c-.25-.48-.47-1-.74-1.45q-6.58-11.33-19.77-17.09a91.25,91.25,0,0,0-30.06-7q-4.29-.32-8.57-.47a49,49,0,0,0,12.69-4.48A55.14,55.14,0,0,0,478,505.12a130.84,130.84,0,0,0,12.56-22.66q5.15-11.94,10.29-22.44a47.32,47.32,0,0,1,13-16.68,35.81,35.81,0,0,1,7-4.12,21.26,21.26,0,0,1,8.65-1.64,4.42,4.42,0,0,1,1.64.2l1.24.62A56.9,56.9,0,0,0,520,451.58q-5.35,7.83-5.35,15.65A19.72,19.72,0,0,0,519,481q4.74,6,15,6,9,0,15-4.53a29.17,29.17,0,0,0,9.06-11.32,38.08,38.08,0,0,0,3.5-13.38,30.5,30.5,0,0,0-6.18-20.18q-6.59-8.65-23.06-8.65a40.09,40.09,0,0,0-11.53,1.85q-6.18,1.85-13.18,7.62a47.57,47.57,0,0,0-13.8,16.88q-5.16,10.31-9.88,21.83a127.35,127.35,0,0,1-11.53,21.83,56.21,56.21,0,0,1-18.54,17.3q-10.32,6.15-26.84,7.85l60-204.71a177,177,0,0,1-36.66,12.15,228.58,228.58,0,0,1-44.89,4.73l-2.47,8.65q20.18,0,25.33,6.59t1,20.59l-81.55,274.7h43.25l34.39-117.36q28.08,2.88,36.65,13,9.27,10.92,3.91,34l-7,34.19q-4.94,21.42,3.5,31.71,7.47,9.12,20.62,10.15a76.76,76.76,0,0,0-5.81,28.5,54.37,54.37,0,0,0,5.35,23.89,40.34,40.34,0,0,0,16.89,17.71q11.52,6.59,30.47,6.58A73.94,73.94,0,0,0,566.33,720a118.06,118.06,0,0,0,21.72-15.36c.37.74.74,1.49,1.14,2.19q7.2,12.35,18.74,17.29a61.93,61.93,0,0,0,24.71,4.94q24.71,0,42.63-11.12a94.58,94.58,0,0,0,29.85-29.65,158.22,158.22,0,0,0,18.54-40.56,200.4,200.4,0,0,0,8-44.69A172.9,172.9,0,0,0,729.83,561.89ZM509.5,564q4.11-13.19,8.24-18.33A12.68,12.68,0,0,1,528,540.47a18.14,18.14,0,0,1,12.36,4.74A19.15,19.15,0,0,0,553.57,550,27.82,27.82,0,0,0,567,546.24a160,160,0,0,0,14-8.65q7.21-4.94,15.45-9.47a73.32,73.32,0,0,1,8.76-4.1q-22.08,16.4-44,34.78a435.7,435.7,0,0,0-42,40.15,242.5,242.5,0,0,0-20.95,26.33,49.33,49.33,0,0,1,.79-6.5l7.82-37.89a59.73,59.73,0,0,0,1.33-12.81Zm105.84,57.24q5.35-16.05,12.77-26.35t13.59-10.3q4.53,0,6.18,5.56a49.63,49.63,0,0,1,1.65,13.8q0,22.23-11.33,44.27a118.71,118.71,0,0,1-24.89,32.93A102,102,0,0,1,610,655,106.11,106.11,0,0,1,615.34,621.19Z" transform="translate(-83 -246.57)"/><path class="cls-1" d="M610,655.74c0,1.41.07,2.8.13,4.2q10.29.57,20.44,1c.91-1.33,1.8-2.69,2.66-4.06Q621.7,656.4,610,655.74Z" transform="translate(-83 -246.57)"/><path class="cls-1" d="M702.88,662.67l6,0c.59-1.39,1.17-2.79,1.72-4.21-21.91.12-44.51-.26-67.63-1.14-.85,1.38-1.72,2.76-2.64,4.11C661.69,662.25,682.57,662.67,702.88,662.67Z" transform="translate(-83 -246.57)"/><path class="cls-1" d="M630.58,661c3.27.15,6.55.32,9.8.44.92-1.35,1.79-2.73,2.64-4.11l-9.78-.39C632.38,658.28,631.49,659.64,630.58,661Z" transform="translate(-83 -246.57)"/></svg>