<svg xmlns="http://www.w3.org/2000/svg" xmlns:xlink="http://www.w3.org/1999/xlink" viewBox="0 0 1034.2 668.7"><defs><style>.cls-1{fill:url(#linear-gradient);}.cls-2{fill:none;}.cls-3{isolation:isolate;}.cls-4{clip-path:url(#clip-path);}.cls-5{fill:url(#linear-gradient-2);}.cls-6{fill:#beb8f2;}.cls-111,.cls-7,.cls-8,.cls-99{fill:#6165d7;}.cls-7{opacity:0.19;}.cls-109,.cls-35,.cls-37,.cls-43,.cls-48,.cls-7,.cls-76,.cls-8,.cls-85,.cls-87,.cls-99{mix-blend-mode:multiply;}.cls-8{opacity:0.32;}.cls-9{fill:url(#linear-gradient-3);}.cls-10{fill:url(#linear-gradient-4);}.cls-11{fill:url(#linear-gradient-5);}.cls-12{clip-path:url(#clip-path-2);}.cls-13{fill:#fcfdfe;}.cls-14,.cls-76{fill:#d8dee8;}.cls-15{fill:#f4f7fa;}.cls-16,.cls-93{fill:#fff;}.cls-17{fill:#c281e8;}.cls-18{fill:url(#linear-gradient-6);}.cls-19{fill:#f8924e;}.cls-20{fill:#ffc244;}.cls-21{fill:#9c73f4;}.cls-22{fill:url(#linear-gradient-7);}.cls-23{fill:#a67ff7;}.cls-24{fill:url(#linear-gradient-8);}.cls-25{fill:url(#linear-gradient-9);}.cls-26{clip-path:url(#clip-path-3);}.cls-27{fill:url(#linear-gradient-10);}.cls-28{fill:url(#linear-gradient-11);}.cls-29{fill:url(#linear-gradient-12);}.cls-30{clip-path:url(#clip-path-4);}.cls-31{fill:url(#linear-gradient-13);}.cls-32{clip-path:url(#clip-path-5);}.cls-33{fill:url(#linear-gradient-14);}.cls-34{fill:url(#linear-gradient-15);}.cls-35{opacity:0.35;}.cls-36{fill:url(#linear-gradient-16);}.cls-37{opacity:0.13;}.cls-38{fill:url(#linear-gradient-17);}.cls-39{fill:#ffa6a4;}.cls-40{fill:url(#linear-gradient-18);}.cls-41{fill:url(#linear-gradient-19);}.cls-42{fill:url(#linear-gradient-20);}.cls-109,.cls-43{opacity:0.24;}.cls-44{fill:#552d63;}.cls-45{fill:url(#linear-gradient-21);}.cls-46{fill:url(#linear-gradient-22);}.cls-47{fill:url(#linear-gradient-23);}.cls-48{opacity:0.2;}.cls-49{fill:url(#linear-gradient-24);}.cls-50{fill:url(#linear-gradient-25);}.cls-51{fill:url(#linear-gradient-26);}.cls-52{fill:#9f73f8;}.cls-53{fill:#ae87f9;}.cls-54{fill:url(#linear-gradient-27);}.cls-55{fill:url(#linear-gradient-28);}.cls-56{fill:url(#linear-gradient-29);}.cls-57{fill:url(#linear-gradient-30);}.cls-58{fill:url(#linear-gradient-31);}.cls-59{fill:#26264f;}.cls-60{fill:#444b8c;}.cls-61{fill:url(#linear-gradient-32);}.cls-62{fill:#1f1f44;}.cls-63{fill:url(#linear-gradient-33);}.cls-64{fill:url(#linear-gradient-34);}.cls-65{fill:url(#linear-gradient-35);}.cls-66{fill:url(#linear-gradient-36);}.cls-67{fill:url(#linear-gradient-37);}.cls-68{fill:url(#linear-gradient-38);}.cls-69{clip-path:url(#clip-path-6);}.cls-70{fill:url(#linear-gradient-39);}.cls-71{clip-path:url(#clip-path-7);}.cls-72{fill:#5a2f71;}.cls-73{fill:url(#linear-gradient-40);}.cls-74{fill:url(#linear-gradient-41);}.cls-75{clip-path:url(#clip-path-8);}.cls-76{opacity:0.47;}.cls-77{fill:url(#linear-gradient-42);}.cls-78{fill:url(#linear-gradient-43);}.cls-79{fill:url(#linear-gradient-44);}.cls-80{fill:url(#linear-gradient-45);}.cls-81{fill:url(#linear-gradient-46);}.cls-82{fill:url(#linear-gradient-47);}.cls-83{fill:url(#linear-gradient-48);}.cls-84{fill:url(#linear-gradient-49);}.cls-85,.cls-87{opacity:0.25;}.cls-85{fill:url(#linear-gradient-50);}.cls-86{fill:url(#linear-gradient-51);}.cls-87{fill:url(#linear-gradient-52);}.cls-88{fill:url(#linear-gradient-53);}.cls-89{fill:url(#linear-gradient-54);}.cls-90{fill:url(#linear-gradient-55);}.cls-91{fill:url(#linear-gradient-56);}.cls-92{mask:url(#mask);}.cls-93{opacity:0.82;}.cls-94{fill:#6567d9;}.cls-95{fill:url(#linear-gradient-57);}.cls-96{fill:url(#linear-gradient-58);}.cls-97{fill:#726bdf;}.cls-98{fill:url(#linear-gradient-59);}.cls-99{opacity:0.3;}.cls-100{fill:url(#linear-gradient-60);}.cls-101{fill:url(#linear-gradient-61);}.cls-102{fill:url(#linear-gradient-62);}.cls-103{fill:url(#linear-gradient-63);}.cls-104{fill:url(#linear-gradient-64);}.cls-105{fill:url(#linear-gradient-65);}.cls-106{fill:url(#linear-gradient-66);}.cls-107{fill:url(#linear-gradient-67);}.cls-108{fill:url(#linear-gradient-68);}.cls-109{fill:#f8944e;}.cls-110{fill:url(#linear-gradient-69);}.cls-112{fill:url(#linear-gradient-70);}.cls-113{fill:url(#linear-gradient-71);}.cls-114{fill:#4c53a5;}.cls-115{fill:url(#linear-gradient-72);}.cls-116{fill:url(#linear-gradient-73);}.cls-117{fill:url(#linear-gradient-74);}.cls-118{fill:url(#linear-gradient-75);}.cls-119{fill:url(#linear-gradient-76);}.cls-120{fill:url(#linear-gradient-77);}</style><linearGradient id="linear-gradient" x1="369.73" y1="732.79" x2="369.73" y2="540.1" gradientUnits="userSpaceOnUse"><stop offset="0.3"/><stop offset="0.36" stop-color="#070707"/><stop offset="0.45" stop-color="#1b1b1b"/><stop offset="0.56" stop-color="#3b3b3b"/><stop offset="0.68" stop-color="#686868"/><stop offset="0.81" stop-color="#a2a2a2"/><stop offset="0.95" stop-color="#e7e7e7"/><stop offset="1" stop-color="#fff"/></linearGradient><clipPath id="clip-path" transform="translate(-18.75 -205.65)"><path class="cls-2" d="M837.79,561.35q-23.13-.83-46.3-2.71c-.22.25-8.85-32.16,4.9-51.19,27.26-36.92,3.07-64.67-4.85-81.82-12.31-24.07-10.81-55.14,17.49-52.48,27.5,1.94,25.44-54,16.06-96.23-6.28-20.36,10.56-47.78,29.51-55.72,19.29-8.6,40.69,2.27,51.4,43.06,14.57,47-17.26,79.82-27.57,105.33-10.15,25.05,21.67,40.88.08,64.47-18,20.83-41.91,37-30,59.35C860.54,515.46,860.36,534.6,837.79,561.35Z"/></clipPath><linearGradient id="linear-gradient-2" x1="1515.2" y1="360.52" x2="1405.64" y2="671.92" gradientTransform="matrix(-0.92, -0.4, -0.4, 0.92, 2388.57, 502.09)" gradientUnits="userSpaceOnUse"><stop offset="0" stop-color="#aa80f9"/><stop offset="1" stop-color="#6165d7"/></linearGradient><linearGradient id="linear-gradient-3" x1="856.74" y1="556.31" x2="926.86" y2="579.88" gradientUnits="userSpaceOnUse"><stop offset="0" stop-color="#ab316d"/><stop offset="1" stop-color="#792d3d"/></linearGradient><linearGradient id="linear-gradient-4" x1="830.85" y1="319.04" x2="885.87" y2="319.04" gradientUnits="userSpaceOnUse"><stop offset="0" stop-color="#ffc444"/><stop offset="1" stop-color="#f36f56"/></linearGradient><linearGradient id="linear-gradient-5" x1="832.07" y1="412.27" x2="966.05" y2="412.27" gradientUnits="userSpaceOnUse"><stop offset="0" stop-color="#e38ddd"/><stop offset="1" stop-color="#9571f6"/></linearGradient><clipPath id="clip-path-2" transform="translate(-18.75 -205.65)"><path class="cls-2" d="M906.06,525.65l-50.3,16.67c-5.29-6.14-13.39-18-3.94-24.77,13.14-9.35,4.74-35.2-2.37-42.93-8.79-9.58-28.82-32.29-8.73-47.07,16.72-12.31,30-16.83,23.12-41.4S865,342.05,887.36,336c23.54-6.33,32-43.4,54.34-39.57,38.94,6.68,27.26,70-7.47,99s-6.9,35.6.89,55c10.65,26.45-27.75,33.09-33.77,46.95C896.63,508.25,901.93,519.23,906.06,525.65Z"/></clipPath><linearGradient id="linear-gradient-6" x1="479.01" y1="366.34" x2="538.3" y2="366.34" gradientUnits="userSpaceOnUse"><stop offset="0" stop-color="#ff9085"/><stop offset="1" stop-color="#fb6fbb"/></linearGradient><linearGradient id="linear-gradient-7" x1="676.17" y1="368.98" x2="794.17" y2="368.98" xlink:href="#linear-gradient-6"/><linearGradient id="linear-gradient-8" x1="268.2" y1="573.77" x2="318.33" y2="573.77" xlink:href="#linear-gradient-6"/><linearGradient id="linear-gradient-9" x1="263.09" y1="423.45" x2="291.22" y2="423.45" xlink:href="#linear-gradient-6"/><clipPath id="clip-path-3" transform="translate(-18.75 -205.65)"><path class="cls-2" d="M345.27,367.38q.5,15,1,30l75.61.5q-.61-19.1-1.24-38.2c-20.31-9.67-31.55-8.78-38.08-6.08-7.34,3-11.44,9.5-23.77,12.46A50.28,50.28,0,0,1,345.27,367.38Z"/></clipPath><linearGradient id="linear-gradient-10" x1="317.31" y1="152.3" x2="384.07" y2="211.52" xlink:href="#linear-gradient-6"/><linearGradient id="linear-gradient-11" x1="332.77" y1="136.09" x2="398.92" y2="194.77" xlink:href="#linear-gradient-6"/><linearGradient id="linear-gradient-12" x1="342.78" y1="125.91" x2="408.49" y2="184.19" xlink:href="#linear-gradient-6"/><clipPath id="clip-path-4" transform="translate(-18.75 -205.65)"><path class="cls-2" d="M668.27,516.47c7.07-5,12.81-6,16.86-5.86,5.13.12,6.83,1.95,12.36,1.26s6-2.88,12.29-3.9a33.61,33.61,0,0,1,12.19.43c7.27,1.59,7.63,4.23,12.07,4.05,4.1-.16,4.33-2.43,12.34-6,3.77-1.69,7.29-3.26,12-3.67,5.13-.46,5.54,1,12.08.92A49.79,49.79,0,0,0,782.25,502c6.9-1.72,7.75-3.27,12.42-4a26.85,26.85,0,0,1,12.5,1.25q.52,17.65,1.06,35.3l-139.12,3.64Z"/></clipPath><linearGradient id="linear-gradient-13" x1="478.25" y1="504" x2="618.89" y2="504" xlink:href="#linear-gradient-6"/><clipPath id="clip-path-5" transform="translate(-18.75 -205.65)"><path class="cls-2" d="M158.92,675.6h49.57s9.33-25.43-2.82-43.38c-24.78-36.61,9-55.76,22-65.9C247.18,551,257.73,529,229,519.46s.14-54.1,35.25-74.25c34.36-19.72,19.15-92.17-59.14-56.33-46.76,21.41-39.43,71-41.69,96.89s-40.79,28.05-27.6,59.71c11.27,27,32.67,46.75,16.34,65.34S134.13,650.25,158.92,675.6Z"/></clipPath><linearGradient id="linear-gradient-14" x1="246.64" y1="387.09" x2="147.96" y2="667.56" gradientTransform="matrix(1, 0, 0, 1, 0, 0)" xlink:href="#linear-gradient-2"/><linearGradient id="linear-gradient-15" x1="236.72" y1="614" x2="434.35" y2="1036.18" xlink:href="#linear-gradient-6"/><linearGradient id="linear-gradient-16" x1="259.41" y1="603.38" x2="457.03" y2="1025.56" xlink:href="#linear-gradient-6"/><linearGradient id="linear-gradient-17" x1="236.72" y1="614" x2="434.35" y2="1036.18" xlink:href="#linear-gradient-6"/><linearGradient id="linear-gradient-18" x1="-1975.67" y1="553.17" x2="-1934.63" y2="553.17" gradientTransform="matrix(0.66, -0.75, 0.75, 0.66, 1365.03, -1055.05)" gradientUnits="userSpaceOnUse"><stop offset="0" stop-color="#40447e"/><stop offset="1" stop-color="#3c3b6b"/></linearGradient><linearGradient id="linear-gradient-19" x1="657.54" y1="628.9" x2="987.87" y2="971.69" gradientTransform="translate(-179.67 8.02) rotate(5.62)" xlink:href="#linear-gradient-4"/><linearGradient id="linear-gradient-20" x1="135.02" y1="757.4" x2="337.98" y2="865.2" gradientTransform="translate(115.31 -32.94) rotate(-3.5)" gradientUnits="userSpaceOnUse"><stop offset="0" stop-color="#311944"/><stop offset="1" stop-color="#6b3976"/></linearGradient><linearGradient id="linear-gradient-21" x1="58.17" y1="805.69" x2="242.21" y2="771.5" gradientTransform="translate(115.31 -32.94) rotate(-3.5)" gradientUnits="userSpaceOnUse"><stop offset="0" stop-color="#311944"/><stop offset="1" stop-color="#893976"/></linearGradient><linearGradient id="linear-gradient-22" x1="209.59" y1="838.47" x2="162.21" y2="726.28" gradientTransform="translate(115.31 -32.94) rotate(-3.5)" xlink:href="#linear-gradient-2"/><linearGradient id="linear-gradient-23" x1="135.24" y1="786.56" x2="115.12" y2="707.89" gradientTransform="translate(115.31 -32.94) rotate(-3.5)" xlink:href="#linear-gradient-2"/><linearGradient id="linear-gradient-24" x1="135.24" y1="786.56" x2="115.12" y2="707.9" gradientTransform="translate(115.31 -32.94) rotate(-3.5)" xlink:href="#linear-gradient-2"/><linearGradient id="linear-gradient-25" x1="129.52" y1="761.11" x2="226.13" y2="735.49" gradientTransform="translate(115.31 -32.94) rotate(-3.5)" xlink:href="#linear-gradient-4"/><linearGradient id="linear-gradient-26" x1="116.54" y1="796.54" x2="95.38" y2="713.77" gradientTransform="translate(115.31 -32.94) rotate(-3.5)" gradientUnits="userSpaceOnUse"><stop offset="0.28" stop-color="#aa80f9"/><stop offset="1" stop-color="#6165d7"/></linearGradient><linearGradient id="linear-gradient-27" x1="110.39" y1="701.95" x2="112.3" y2="651.22" gradientTransform="translate(115.31 -32.94) rotate(-3.5)" xlink:href="#linear-gradient-4"/><linearGradient id="linear-gradient-28" x1="99.81" y1="684.68" x2="118.91" y2="630.54" xlink:href="#linear-gradient-20"/><linearGradient id="linear-gradient-29" x1="113.06" y1="652.52" x2="111.85" y2="750.16" gradientTransform="translate(115.31 -32.94) rotate(-3.5)" xlink:href="#linear-gradient-4"/><linearGradient id="linear-gradient-30" x1="92.71" y1="683.46" x2="116.17" y2="630.8" xlink:href="#linear-gradient-20"/><linearGradient id="linear-gradient-31" x1="95" y1="682.88" x2="113.96" y2="629.12" xlink:href="#linear-gradient-20"/><linearGradient id="linear-gradient-32" x1="158.84" y1="754.43" x2="224.87" y2="754.43" gradientTransform="translate(115.31 -32.94) rotate(-3.5)" xlink:href="#linear-gradient-18"/><linearGradient id="linear-gradient-33" x1="-670.81" y1="865.67" x2="-638.02" y2="865.67" gradientTransform="translate(718.76 -324.89) rotate(-22.13)" xlink:href="#linear-gradient-18"/><linearGradient id="linear-gradient-34" x1="255.66" y1="764.66" x2="586" y2="1107.46" gradientTransform="translate(115.31 -32.94) rotate(-3.5)" xlink:href="#linear-gradient-4"/><linearGradient id="linear-gradient-35" x1="118.58" y1="788.1" x2="269.88" y2="773.35" xlink:href="#linear-gradient-20"/><linearGradient id="linear-gradient-36" x1="60.41" y1="817.74" x2="244.45" y2="783.55" xlink:href="#linear-gradient-21"/><linearGradient id="linear-gradient-37" x1="126.06" y1="793.75" x2="237.4" y2="769.96" xlink:href="#linear-gradient-20"/><linearGradient id="linear-gradient-38" x1="182.61" y1="711.92" x2="-16.83" y2="367.05" xlink:href="#linear-gradient-4"/><clipPath id="clip-path-6" transform="translate(-18.75 -205.65)"><path class="cls-2" d="M147.58,823.52h50.6s20.17-42.76,2.71-55.41-5.42-48.3-1.21-68.06c11.45-53.61-47.74-56.42-38.54-126.49,2.44-18.63,13.34-53.35-.41-70.27-15.66-19.27-30.91-4.41-40.55-20.07C105.12,458.74,77,447,56.57,467.39,36.44,487.57,51.39,535,98.5,577.78c30.33,34.51,29.68,43.55,24.09,65.05-3.92,15.06-23.79,53-5.12,71.68s32.27,38,22,54.2C123.79,793.41,147.58,823.52,147.58,823.52Z"/></clipPath><linearGradient id="linear-gradient-39" x1="69.47" y1="645.81" x2="180.34" y2="828.33" xlink:href="#linear-gradient-5"/><clipPath id="clip-path-7" transform="translate(-18.75 -205.65)"><path class="cls-2" d="M137.78,824.08h48.49c2.83-6.86,6.43-19.53-3.71-22.65-14.11-4.34-14.25-29.2-10.31-38,4.88-10.85,15.73-36.34-6-43.4-18.06-5.87-30.92-6-32-29.29s-13.7-38-34.85-36.75c-22.27,1.28-40.28-28.48-58.59-18.72-31.9,17-3.53,68.63,35,83.81s16.24,28.94,15,48c-1.63,26,33.63,20.75,42.86,31.06C141,806.26,139.53,817.32,137.78,824.08Z"/></clipPath><linearGradient id="linear-gradient-40" x1="469.79" y1="399.44" x2="722.31" y2="399.44" gradientUnits="userSpaceOnUse"><stop offset="0" stop-color="#e3e7ef"/><stop offset="1" stop-color="#fafbfd"/></linearGradient><linearGradient id="linear-gradient-41" x1="1214.64" y1="373.67" x2="1274.59" y2="373.67" gradientTransform="matrix(1, 0.06, -0.26, 1.01, -556.42, -69.24)" xlink:href="#linear-gradient-6"/><clipPath id="clip-path-8" transform="translate(-18.75 -205.65)"><path class="cls-2" d="M685.79,468l-159.08-8.34c-4.42-.23-7.23-3.81-6.26-8l26.47-114.11a9,9,0,0,1,9.58-6.62l155.92,16.3a6.11,6.11,0,0,1,5.34,7.66L694.34,461.3A8.68,8.68,0,0,1,685.79,468Z"/></clipPath><linearGradient id="linear-gradient-42" x1="534.22" y1="388.82" x2="523.29" y2="400.63" xlink:href="#linear-gradient-4"/><linearGradient id="linear-gradient-43" x1="703.65" y1="411.39" x2="687.16" y2="429.2" xlink:href="#linear-gradient-4"/><linearGradient id="linear-gradient-44" x1="637.69" y1="370.14" x2="709.09" y2="483.63" xlink:href="#linear-gradient-6"/><linearGradient id="linear-gradient-45" x1="665.1" y1="662.82" x2="665.1" y2="644.7" xlink:href="#linear-gradient-4"/><linearGradient id="linear-gradient-46" x1="609.88" y1="667.98" x2="609.88" y2="646.15" xlink:href="#linear-gradient-4"/><linearGradient id="linear-gradient-47" x1="-225.76" y1="-36.14" x2="-139.46" y2="101.03" gradientTransform="translate(787.87 368.93) rotate(-19.17)" xlink:href="#linear-gradient-6"/><linearGradient id="linear-gradient-48" x1="597.66" y1="582.21" x2="669.09" y2="582.21" gradientTransform="matrix(1, 0, 0, 1, 0, 0)" xlink:href="#linear-gradient-21"/><linearGradient id="linear-gradient-49" x1="595.39" y1="528.97" x2="646.85" y2="615.4" gradientTransform="matrix(1, 0, 0, 1, 0, 0)" xlink:href="#linear-gradient-21"/><linearGradient id="linear-gradient-50" x1="615.65" y1="516.9" x2="667.11" y2="603.34" gradientTransform="matrix(1, 0, 0, 1, 0, 0)" xlink:href="#linear-gradient-21"/><linearGradient id="linear-gradient-51" x1="574.93" y1="393.92" x2="659.58" y2="528.45" xlink:href="#linear-gradient-6"/><linearGradient id="linear-gradient-52" x1="541.65" y1="385.78" x2="639.84" y2="541.85" xlink:href="#linear-gradient-6"/><linearGradient id="linear-gradient-53" x1="647.09" y1="410.94" x2="626.51" y2="444.23" xlink:href="#linear-gradient-4"/><linearGradient id="linear-gradient-54" x1="633.99" y1="411.85" x2="664.85" y2="411.85" gradientTransform="matrix(1, 0, 0, 1, 0, 0)" xlink:href="#linear-gradient-20"/><linearGradient id="linear-gradient-55" x1="52.12" y1="129.62" x2="32.2" y2="161.83" gradientTransform="translate(558.47 292.79) rotate(-13.66)" xlink:href="#linear-gradient-4"/><linearGradient id="linear-gradient-56" x1="625.49" y1="415.7" x2="643.25" y2="443.93" xlink:href="#linear-gradient-5"/><mask id="mask" x="195.16" y="334.45" width="311.63" height="192.69" maskUnits="userSpaceOnUse"><g transform="translate(-18.75 -205.65)"><polygon class="cls-1" points="330.08 540.1 213.91 732.79 525.54 732.79 414.92 544.08 330.08 540.1"/></g></mask><linearGradient id="linear-gradient-57" x1="333.01" y1="505.4" x2="400.18" y2="561.49" xlink:href="#linear-gradient-5"/><linearGradient id="linear-gradient-58" x1="308.75" y1="306.35" x2="375.92" y2="362.44" xlink:href="#linear-gradient-5"/><linearGradient id="linear-gradient-59" x1="352.81" y1="513.52" x2="389.46" y2="513.52" gradientTransform="matrix(1, 0, 0, 1, 0, 0)" xlink:href="#linear-gradient-2"/><linearGradient id="linear-gradient-60" x1="964.2" y1="666.02" x2="976.48" y2="666.02" xlink:href="#linear-gradient-4"/><linearGradient id="linear-gradient-61" x1="825.4" y1="751.72" x2="837.22" y2="715.12" xlink:href="#linear-gradient-4"/><linearGradient id="linear-gradient-62" x1="797.16" y1="598.18" x2="834.19" y2="598.18" xlink:href="#linear-gradient-4"/><linearGradient id="linear-gradient-63" x1="834.69" y1="497.45" x2="879.92" y2="497.45" gradientUnits="userSpaceOnUse"><stop offset="0" stop-color="#6e1f3f"/><stop offset="1" stop-color="#792d3d"/></linearGradient><linearGradient id="linear-gradient-64" x1="823.85" y1="661.42" x2="896.34" y2="661.42" gradientTransform="matrix(1, 0, 0, 1, 0, 0)" xlink:href="#linear-gradient-21"/><linearGradient id="linear-gradient-65" x1="859.57" y1="631.68" x2="915.53" y2="850.02" gradientTransform="matrix(1, 0, 0, 1, 0, 0)" xlink:href="#linear-gradient-21"/><linearGradient id="linear-gradient-66" x1="587.85" y1="731.14" x2="677.68" y2="731.14" gradientTransform="translate(213.71 -15.21) rotate(-6.32)" xlink:href="#linear-gradient-21"/><linearGradient id="linear-gradient-67" x1="580.06" y1="624.71" x2="612.55" y2="642.48" gradientTransform="translate(179.04 -7.88) rotate(-5.2)" xlink:href="#linear-gradient-4"/><linearGradient id="linear-gradient-68" x1="866.19" y1="562.94" x2="1007.11" y2="652.24" xlink:href="#linear-gradient-4"/><linearGradient id="linear-gradient-69" x1="886.83" y1="610.37" x2="897.25" y2="622.28" xlink:href="#linear-gradient-4"/><linearGradient id="linear-gradient-70" x1="843.77" y1="573.95" x2="955.91" y2="573.95" gradientTransform="matrix(1, 0, 0, 1, 0, 0)" xlink:href="#linear-gradient-2"/><linearGradient id="linear-gradient-71" x1="862.61" y1="582.11" x2="900.03" y2="582.11" xlink:href="#linear-gradient-6"/><linearGradient id="linear-gradient-72" x1="880.89" y1="544.56" x2="929.99" y2="600.71" xlink:href="#linear-gradient-4"/><linearGradient id="linear-gradient-73" x1="-133.09" y1="686.72" x2="-130.93" y2="629.02" gradientTransform="matrix(-0.97, 0.23, 0.23, 0.97, 577.93, -106.91)" xlink:href="#linear-gradient-4"/><linearGradient id="linear-gradient-74" x1="839.78" y1="466.14" x2="928.08" y2="516.69" xlink:href="#linear-gradient-3"/><linearGradient id="linear-gradient-75" x1="920.61" y1="575.68" x2="1018.74" y2="630.98" gradientTransform="matrix(1, 0.03, -0.03, 0.94, -69.98, -109.01)" xlink:href="#linear-gradient-3"/><linearGradient id="linear-gradient-76" x1="-442.65" y1="610.21" x2="-443.75" y2="698.82" gradientTransform="matrix(-0.99, 0.14, 0.15, 1.03, 319.18, -88.59)" xlink:href="#linear-gradient-4"/><linearGradient id="linear-gradient-77" x1="919.69" y1="577.32" x2="1017.82" y2="632.61" gradientTransform="matrix(1, 0.03, -0.03, 0.94, -69.98, -109.01)" xlink:href="#linear-gradient-3"/></defs><g class="cls-3"><g id="Layer_1" data-name="Layer 1"><g class="cls-4"><path class="cls-5" d="M837.79,561.35q-23.13-.83-46.3-2.71c-.22.25-8.85-32.16,4.9-51.19,27.26-36.92,3.07-64.67-4.85-81.82-12.21-24.06-10.26-51.79,15.24-55C835,366.48,835,319,825.09,276.92c-6.28-20.36,10.56-47.78,29.51-55.72,19.29-8.6,40.69,2.27,51.4,43.06,14.57,47-17.26,79.82-27.57,105.33-10.15,25.05,21.67,40.88.08,64.47-18,20.83-41.91,37-30,59.35C860.54,515.46,860.36,534.6,837.79,561.35Z" transform="translate(-18.75 -205.65)"/><path class="cls-6" d="M816.87,565.64c-.17-1.34,7.29-73.35,24.3-141.61,2.24-11.3,4.77-22.74,7.22-33.81,13.61-61.59,26.48-119.77-1-179.83l1-.46c27.6,60.4,14.7,118.75,1,180.53-2.44,11.05-5,22.49-7.21,33.81C824.78,494.25,818,565.11,818,565.55Z" transform="translate(-18.75 -205.65)"/><path class="cls-6" d="M860.83,333.23l-.88-.63c14.82-20.65,32.26-49.6,41.63-65.16,7.61-12.63,7.63-12.62,8.17-12.6l0,.54.31.43c-.45.44-3.58,5.63-7.53,12.19C893.13,283.57,875.67,312.54,860.83,333.23Z" transform="translate(-18.75 -205.65)"/><path class="cls-6" d="M862.67,306.83C851,265,822.5,254.13,822.23,254.1l0-.42-.43-.52c.26-.22.6-.14,1,0,6,1.87,30.6,16.38,40.9,53.41Z" transform="translate(-18.75 -205.65)"/><path class="cls-6" d="M832.26,469.82h-1.08c.35-43.39-33.16-80.13-47.59-93.91a13.15,13.15,0,0,1-1.13-1.12l.87-.65c.07.09.51.51,1,1C798.87,389,832.62,426,832.26,469.82Z" transform="translate(-18.75 -205.65)"/><path class="cls-6" d="M836.74,448.07l-1-.46c14.92-31.37,53-37.75,53.62-37.75h0l-.08.54-.53.14.53-.14,0,.54C889,411,851.41,417.23,836.74,448.07Z" transform="translate(-18.75 -205.65)"/><path class="cls-6" d="M818.15,554c-.64-8.72-5.39-23.18-24.38-42.58-1.1-1.13-1.1-1.13-1.09-1.4h.54l.46-.28c.07.09.44.47.87.91,19.21,19.63,24,34.36,24.68,43.26Z" transform="translate(-18.75 -205.65)"/><path class="cls-6" d="M821.26,537.14l-1.07-.18c2.79-16.05,23.2-29.81,35.12-36.58.37-.22.62-.35.7-.41l.6.9-.77.45C844.09,508,824,521.54,821.26,537.14Z" transform="translate(-18.75 -205.65)"/></g><path class="cls-7" d="M204.63,702c-.06-2.34-52.67-78.92,16-83.83,120.27-8.59,180.41-12.86,236-22,167-27.39,318.69-3.43,461.28-.31,26.84.59,84.73-4.2,115.3,32.2,16.42,19.56,23.38,48.61,17.83,74-5.16,23.57-21,43.9-142.9,108.92-64.66,34.5-95.42,53.63-141.8,60.43-35.08,5.15-54.62,1.07-64-1.47-43.7-11.77-66.64-43.4-84.94-63-73-77.95-202.75-103.41-281.86-100.88C271.71,708.2,205.69,740.17,204.63,702Z" transform="translate(-18.75 -205.65)"/><path class="cls-8" d="M825.23,577.21c30.88,11.15,64.51,26,62.95,39-1.7,14.15-43.94,13.46-109.92,31-105.08,27.91-110,59.43-162.88,55-60.83-5.15-59.7-47.38-131.9-59-27.15-4.35-66.07,1.43-143.9,13-52.46,7.79-93.47,16.65-117.91-7-1.22-1.18-13.5-13.06-12.82-21.35C210.93,602.75,334.27,578.84,825.23,577.21Z" transform="translate(-18.75 -205.65)"/><path class="cls-9" d="M895.78,600.78c-.28,2.43-1.46,4.38-3,5-3.88,1.53-8.91,2.1-14.78,2.11s-11.06-.6-15-2.15c-1.5-.6-2.66-2.46-3-4.8L849.6,525h54.93Z" transform="translate(-18.75 -205.65)"/><ellipse class="cls-10" cx="858.36" cy="319.04" rx="27.51" ry="4.42"/><path class="cls-11" d="M850.93,523.65c1.46.89,4.62,3.87,8.84,4.2,28.06,2.21,39.86-3.58,40.88-4.42.17-.14-.87-12.12-.71-12.27a23.42,23.42,0,0,1,1.41-13.78c6-13.86,44.42-20.5,33.77-46.95-7.79-19.38-35.62-26-.89-55s46.41-92.3,7.47-99c-22.35-3.83-30.8,33.24-54.34,39.57-22.37,6-30.41,25.54-23.52,50.11s-6.4,29.09-23.12,41.4c-20.09,14.78-.06,37.49,8.73,47.07C856.54,482.33,863.88,514.22,850.93,523.65Z" transform="translate(-18.75 -205.65)"/><g class="cls-12"><path class="cls-13" d="M878.69,525.72c-10.53-83.27,19.41-171.23,78.12-229.58l.71.71C899,355,869.19,442.63,879.68,525.6Z" transform="translate(-18.75 -205.65)"/><path class="cls-13" d="M876.88,480c-10.53-31.32-45.53-46.69-45.88-46.84l.39-.92c.36.16,35.76,15.71,46.44,47.44Z" transform="translate(-18.75 -205.65)"/><path class="cls-13" d="M878.16,510.2l-1-.17c5.65-32.92,61.89-56.24,62.46-56.47l.38.93C939.45,454.71,883.72,477.82,878.16,510.2Z" transform="translate(-18.75 -205.65)"/><path class="cls-13" d="M893.69,398.94l-1-.09c2.24-26.46-24.78-56.93-25.06-57.24l.75-.66C868.66,341.26,896,372,893.69,398.94Z" transform="translate(-18.75 -205.65)"/><path class="cls-13" d="M916.07,350.49l-.77-.64c19.35-23.19,59.92-27.62,60.33-27.66l.1,1C975.33,323.22,935.15,327.61,916.07,350.49Z" transform="translate(-18.75 -205.65)"/></g><path class="cls-14" d="M624.29,450.14l-158.45.8a7.88,7.88,0,0,1-8-7.43l-3.68-113.79a7.11,7.11,0,0,1,7.52-7.29l158.74,3.8a7.68,7.68,0,0,1,7.41,7.36l3.41,109.33A7,7,0,0,1,624.29,450.14Z" transform="translate(-18.75 -205.65)"/><path class="cls-15" d="M627.12,449.22l-158.44.8a7.87,7.87,0,0,1-8-7.43L457,328.81a7.13,7.13,0,0,1,7.52-7.3l158.74,3.8a7.7,7.7,0,0,1,7.42,7.37L634.08,442A7,7,0,0,1,627.12,449.22Z" transform="translate(-18.75 -205.65)"/><polygon class="cls-16" points="615.42 202.22 440.75 201.41 440.86 204.71 615.52 205.39 615.42 202.22"/><polygon class="cls-16" points="543.12 117.39 545.86 204.19 549.13 204.21 546.38 117.47 543.12 117.39"/><path class="cls-17" d="M543.29,426.94H481.5a.54.54,0,0,1-.54-.51l-.18-5.55a.5.5,0,0,1,.51-.51l61.8.11a.52.52,0,0,1,.52.5l.17,5.47A.48.48,0,0,1,543.29,426.94Z" transform="translate(-18.75 -205.65)"/><path class="cls-14" d="M560.16,439.2l-78.26.21a.54.54,0,0,1-.54-.51l-.18-5.55a.49.49,0,0,1,.51-.5l78.26-.1a.53.53,0,0,1,.52.5l.17,5.45A.48.48,0,0,1,560.16,439.2Z" transform="translate(-18.75 -205.65)"/><polygon class="cls-14" points="603.57 148.55 556.24 147.74 555.66 129.23 603 130.25 603.57 148.55"/><polygon class="cls-14" points="604.94 192.59 557.64 192.26 556.49 155.62 603.81 156.34 604.94 192.59"/><path class="cls-16" d="M509.72,353.24a14.08,14.08,0,0,1,13.86,13.3,12.44,12.44,0,0,1-1.16,5.63l15.88,7.34a28.44,28.44,0,0,0,2.53-12.73c-.53-16.47-14.67-30.15-31.65-30.51h-.13l.54,17Z" transform="translate(-18.75 -205.65)"/><path class="cls-18" d="M522.42,372.17a12.76,12.76,0,0,1-11.86,7.29,14.07,14.07,0,0,1-13.93-13.3,12.59,12.59,0,0,1,13-12.92l-.54-17c-17.05-.28-30.56,13-30,29.65s15,30.38,32.08,30.5a29.33,29.33,0,0,0,27.19-16.91Z" transform="translate(-18.75 -205.65)"/><path class="cls-14" d="M843.3,595.6c.21,7.29-5.27,13.51-12.21,13.82L225,639.25c-17.44,1.08-25.33-8.24-25.62-16.7L188.14,292.27l2.16-30.54c-.29-8.51,3.58-24.53,12.89-24.15L820.9,262.92c7,.28,12.83,6.51,13.05,13.83Z" transform="translate(-18.75 -205.65)"/><path class="cls-19" d="M835,311.12l-1-34.37c-.22-7.32-6.08-13.55-5.29-16.4l-617.2-24.74c-21.68.89-25.15,13.46-24.86,22l1.52,34.69,11.6-2Z" transform="translate(-18.75 -205.65)"/><path class="cls-16" d="M861.56,596.9c.22,7.36-5.32,13.65-12.32,14L228.71,639c-9.36.43-17.28-6.22-17.57-14.78L199.72,290.26l3.33-39c-.29-8.6,3.51-13.22,12.92-12.84l622.89,22.29c7,.29,13,6.58,13.18,14Z" transform="translate(-18.75 -205.65)"/><path class="cls-20" d="M853.07,309.38l-1-34.74c-.21-7.4-6.14-13.69-13.18-14L214.93,235c-9.4-.39-16.89,6.33-16.6,14.94l1.39,40.35Z" transform="translate(-18.75 -205.65)"/><path class="cls-21" d="M241.16,264.53c.14,4.26-3.51,7.58-8.15,7.43s-8.57-3.75-8.71-8,3.52-7.59,8.18-7.42S241,260.28,241.16,264.53Z" transform="translate(-18.75 -205.65)"/><path class="cls-21" d="M277.33,265.8c.15,4.22-3.44,7.52-8,7.37s-8.43-3.71-8.57-7.95,3.46-7.54,8.05-7.37S277.19,261.58,277.33,265.8Z" transform="translate(-18.75 -205.65)"/><path class="cls-21" d="M313,267.05c.14,4.19-3.39,7.46-7.9,7.31s-8.3-3.68-8.44-7.88,3.42-7.48,7.93-7.32S312.81,262.86,313,267.05Z" transform="translate(-18.75 -205.65)"/><path class="cls-15" d="M466.3,451.36a8.89,8.89,0,0,1-8.95-8.4l-3.68-113.79A7.86,7.86,0,0,1,456,323.3a8.53,8.53,0,0,1,6.25-2.46L621,324.65a8.7,8.7,0,0,1,8.39,8.33l3.41,109.33a8,8,0,0,1-8,8.25l-158.44.8ZM462,322.84a6.44,6.44,0,0,0-4.61,1.86,6,6,0,0,0-1.72,4.41l3.69,113.78a6.87,6.87,0,0,0,6.95,6.47h0l158.44-.8a6,6,0,0,0,6-6.19L627.35,333a6.7,6.7,0,0,0-6.45-6.4l-158.73-3.8Z" transform="translate(-18.75 -205.65)"/><path class="cls-14" d="M807.15,449.34l-144.95.73a7.33,7.33,0,0,1-7.3-7.1l-3.37-108.73a6.67,6.67,0,0,1,6.88-7l145.2,3.48a7.18,7.18,0,0,1,6.79,7l3.13,104.66A6.54,6.54,0,0,1,807.15,449.34Z" transform="translate(-18.75 -205.65)"/><path class="cls-15" d="M809.73,448.3l-145,.73a7.34,7.34,0,0,1-7.3-7.1L654.12,333.2a6.66,6.66,0,0,1,6.87-7l145.2,3.47a7.21,7.21,0,0,1,6.8,7.05l3.12,104.66A6.54,6.54,0,0,1,809.73,448.3Z" transform="translate(-18.75 -205.65)"/><polygon class="cls-16" points="637.64 202.26 637.74 205.41 797.83 206.03 797.74 203 637.64 202.26"/><path class="cls-20" d="M715.67,427h-40a.5.5,0,0,1-.49-.48l-.17-5.31a.45.45,0,0,1,.47-.48l40,.06a.49.49,0,0,1,.48.48l.16,5.26A.46.46,0,0,1,715.67,427Z" transform="translate(-18.75 -205.65)"/><path class="cls-14" d="M764.27,438.66l-88.27.23a.5.5,0,0,1-.5-.48l-.16-5.31a.46.46,0,0,1,.46-.48l88.29-.11a.49.49,0,0,1,.47.48l.16,5.19A.46.46,0,0,1,764.27,438.66Z" transform="translate(-18.75 -205.65)"/><path class="cls-22" d="M677.67,392.08a1.55,1.55,0,0,1-.75-.19,1.51,1.51,0,0,1-.55-2.05c10.3-18,22.09-27.76,35-29,8.18-.76,14.5,2.19,20.59,5,5.5,2.57,11.19,5.23,18.55,5.42,13.56.34,27.35-8,41-24.9a1.5,1.5,0,0,1,2.33,1.88c-14.23,17.65-28.8,26.42-43.38,26-8-.21-14-3-19.74-5.71-6-2.8-11.65-5.45-19-4.76C699.77,365,688.76,374.21,679,391.33A1.5,1.5,0,0,1,677.67,392.08Z" transform="translate(-18.75 -205.65)"/><path class="cls-16" d="M758.22,372.93a5.6,5.6,0,0,1-5.63,5.92,6.23,6.23,0,0,1-6-6.07,5.6,5.6,0,0,1,5.64-5.92A6.23,6.23,0,0,1,758.22,372.93Z" transform="translate(-18.75 -205.65)"/><path class="cls-23" d="M752.66,379.61h-.07a7,7,0,0,1-6.76-6.81,6.52,6.52,0,0,1,1.85-4.84,6.24,6.24,0,0,1,4.47-1.86h.09a7,7,0,0,1,6.74,6.81,6.52,6.52,0,0,1-1.85,4.83A6.19,6.19,0,0,1,752.66,379.61Zm-.51-12a4.68,4.68,0,0,0-3.38,1.41,5,5,0,0,0-1.43,3.72,5.48,5.48,0,0,0,5.26,5.34,4.66,4.66,0,0,0,3.45-1.42,5.06,5.06,0,0,0,1.42-3.72,5.48,5.48,0,0,0-5.25-5.33Z" transform="translate(-18.75 -205.65)"/><polygon class="cls-14" points="706.22 141.23 655.06 140.24 654.78 131.36 705.95 132.46 706.22 141.23"/><polygon class="cls-17" points="762.64 180.96 742.5 180.76 742.3 174.12 762.44 174.35 762.64 180.96"/><path class="cls-14" d="M428,598.91l-173.67,6.63c-4.7.17-8.63-3.18-8.78-7.5l-4-119.11c-.15-4.33,3.56-7.87,8.26-7.92l174-1.58a7.92,7.92,0,0,1,8.12,7.44l3.72,114.24A7.74,7.74,0,0,1,428,598.91Z" transform="translate(-18.75 -205.65)"/><path class="cls-15" d="M430.58,597.87,256.9,604.49c-4.69.18-8.63-3.17-8.77-7.49l-4-119.11c-.14-4.33,3.56-7.87,8.27-7.92l174-1.58a7.92,7.92,0,0,1,8.12,7.44l3.72,114.24A7.73,7.73,0,0,1,430.58,597.87Z" transform="translate(-18.75 -205.65)"/><polygon class="cls-16" points="419.4 346.88 227.97 352.25 228.09 355.7 419.51 350.19 419.4 346.88"/><polygon class="cls-14" points="402.06 313.23 248.19 316.37 246.9 278.19 400.85 276.32 402.06 313.23"/><polygon class="cls-14" points="402.71 333.39 248.89 337.21 248.44 323.75 402.29 320.36 402.71 333.39"/><path class="cls-24" d="M317.78,576.38,269,578a.55.55,0,0,1-.59-.52l-.2-5.81a.56.56,0,0,1,.56-.55l48.8-1.51a.55.55,0,0,1,.58.51l.19,5.75A.55.55,0,0,1,317.78,576.38Z" transform="translate(-18.75 -205.65)"/><path class="cls-14" d="M363.52,587.71,269.43,591a.55.55,0,0,1-.59-.51l-.2-5.81a.56.56,0,0,1,.56-.55L363.29,581a.53.53,0,0,1,.57.5l.19,5.69A.54.54,0,0,1,363.52,587.71Z" transform="translate(-18.75 -205.65)"/><path class="cls-14" d="M430.56,443.6a7.46,7.46,0,0,1-7.63,7.56l-174,.88c-4.71,0-8.66-3.47-8.8-7.8L236,324.86c-.15-4.33,3.56-7.76,8.28-7.64l174.38,4.18a8.27,8.27,0,0,1,8.14,7.71Z" transform="translate(-18.75 -205.65)"/><path class="cls-15" d="M433.39,442.68a7.45,7.45,0,0,1-7.63,7.56l-174,.88c-4.71,0-8.65-3.47-8.8-7.79l-4-119.38c-.15-4.34,3.56-7.76,8.28-7.65l174.38,4.18a8.25,8.25,0,0,1,8.14,7.72Z" transform="translate(-18.75 -205.65)"/><polygon class="cls-16" points="414.62 201.37 222.77 200.48 222.89 203.94 414.73 204.68 414.62 201.37"/><polygon class="cls-16" points="311.97 111.81 315.01 203.24 318.63 203.26 315.6 111.9 311.97 111.81"/><polygon class="cls-14" points="297.51 166.88 243.11 166.22 241.64 122.49 296.06 123.66 297.51 166.88"/><polygon class="cls-14" points="298.3 190.47 243.92 190.1 243.4 174.67 297.79 175.23 298.3 190.47"/><path class="cls-25" d="M290.67,426.9H263.88a.58.58,0,0,1-.59-.53l-.2-5.83a.53.53,0,0,1,.56-.53l26.79.05a.57.57,0,0,1,.58.53l.2,5.79A.53.53,0,0,1,290.67,426.9Z" transform="translate(-18.75 -205.65)"/><path class="cls-14" d="M330.06,439.8l-65.73.19a.58.58,0,0,1-.6-.53l-.19-5.83a.53.53,0,0,1,.55-.53l65.75,0a.56.56,0,0,1,.57.52l.19,5.69A.53.53,0,0,1,330.06,439.8Z" transform="translate(-18.75 -205.65)"/><polygon class="cls-16" points="348.57 189.74 333.42 189.64 331.26 124.42 346.42 124.74 348.57 189.74"/><polygon class="cls-16" points="373.72 189.92 358.74 189.82 356.61 124.96 371.6 125.28 373.72 189.92"/><polygon class="cls-16" points="398.59 190.1 383.78 190 381.67 125.5 396.49 125.82 398.59 190.1"/><g class="cls-26"><polygon class="cls-27" points="348.57 189.74 333.42 189.64 332.3 155.77 347.45 155.99 348.57 189.74"/><polygon class="cls-28" points="373.72 189.92 358.74 189.82 357.1 140.01 372.09 140.29 373.72 189.92"/><polygon class="cls-29" points="398.59 190.1 383.78 190 382.34 146.17 397.16 146.42 398.59 190.1"/></g><path class="cls-14" d="M811.18,584.31l-144.66,5.51a7,7,0,0,1-7.28-6.85l-3.36-108.52a6.92,6.92,0,0,1,6.85-7.2l144.92-1.32a6.9,6.9,0,0,1,6.78,6.81l3.12,104.46A6.8,6.8,0,0,1,811.18,584.31Z" transform="translate(-18.75 -205.65)"/><path class="cls-15" d="M813.76,583.27,669.1,588.78a7,7,0,0,1-7.28-6.85l-3.36-108.52a6.92,6.92,0,0,1,6.85-7.2l144.92-1.32A6.9,6.9,0,0,1,817,471.7l3.12,104.46A6.8,6.8,0,0,1,813.76,583.27Z" transform="translate(-18.75 -205.65)"/><polygon class="cls-16" points="641.94 340.64 642.04 343.79 801.82 339.2 801.73 336.17 641.94 340.64"/><path class="cls-20" d="M707.11,563.73l-27.24.89a.48.48,0,0,1-.49-.47l-.16-5.3a.48.48,0,0,1,.46-.5l27.24-.84a.46.46,0,0,1,.48.46l.16,5.27A.47.47,0,0,1,707.11,563.73Z" transform="translate(-18.75 -205.65)"/><path class="cls-14" d="M735.93,574.56l-55.69,2a.47.47,0,0,1-.49-.46l-.16-5.3a.47.47,0,0,1,.46-.5l55.69-1.88a.47.47,0,0,1,.48.46l.16,5.23A.47.47,0,0,1,735.93,574.56Z" transform="translate(-18.75 -205.65)"/><polygon class="cls-16" points="665.24 328.85 656.81 329.07 655.13 274.57 663.56 274.47 665.24 328.85"/><polygon class="cls-16" points="677.71 328.54 669.34 328.75 667.67 274.42 676.04 274.31 677.71 328.54"/><polygon class="cls-16" points="690.11 328.22 681.79 328.43 680.13 274.26 688.45 274.16 690.11 328.22"/><polygon class="cls-16" points="702.44 327.91 694.16 328.12 692.51 274.11 700.79 274 702.44 327.91"/><polygon class="cls-16" points="714.69 327.6 706.47 327.81 704.82 273.95 713.06 273.85 714.69 327.6"/><polygon class="cls-16" points="726.88 327.29 718.7 327.5 717.07 273.8 725.25 273.7 726.88 327.29"/><polygon class="cls-16" points="738.99 326.98 730.86 327.19 729.23 273.65 737.37 273.55 738.99 326.98"/><polygon class="cls-16" points="751.03 326.68 742.95 326.88 741.33 273.5 749.42 273.4 751.03 326.68"/><polygon class="cls-16" points="763 326.37 754.97 326.58 753.36 273.35 761.4 273.25 763 326.37"/><polygon class="cls-16" points="774.9 326.07 766.91 326.27 765.32 273.2 773.31 273.1 774.9 326.07"/><polygon class="cls-16" points="786.74 325.77 778.79 325.97 777.21 273.05 785.15 272.95 786.74 325.77"/><g class="cls-30"><polygon class="cls-20" points="665.24 328.85 656.81 329.07 655.94 300.77 664.37 300.61 665.24 328.85"/><polygon class="cls-20" points="677.71 328.54 669.34 328.75 668.05 287.03 676.43 286.9 677.71 328.54"/><polygon class="cls-20" points="690.11 328.22 681.79 328.43 680.66 291.62 688.99 291.49 690.11 328.22"/><polygon class="cls-20" points="702.44 327.91 694.16 328.12 693.03 291.01 701.31 290.87 702.44 327.91"/><polygon class="cls-20" points="714.69 327.6 706.47 327.81 705.21 286.45 713.43 286.33 714.69 327.6"/><polygon class="cls-20" points="726.88 327.29 718.7 327.5 717.59 291.01 725.77 290.88 726.88 327.29"/><polygon class="cls-20" points="738.99 326.98 730.86 327.19 729.66 287.78 737.8 287.65 738.99 326.98"/><polygon class="cls-20" points="751.03 326.68 742.95 326.88 741.88 291.52 749.96 291.38 751.03 326.68"/><polygon class="cls-20" points="763 326.37 754.97 326.58 753.88 290.41 761.91 290.28 763 326.37"/><polygon class="cls-20" points="774.9 326.07 766.91 326.27 765.69 285.52 773.68 285.4 774.9 326.07"/><polygon class="cls-20" points="786.74 325.77 778.79 325.97 777.64 287.67 785.59 287.54 786.74 325.77"/></g><path class="cls-14" d="M628.94,591.25l-158.12,6a7.56,7.56,0,0,1-8-7.16l-3.67-113.54a7.4,7.4,0,0,1,7.5-7.54l158.41-1.45a7.37,7.37,0,0,1,7.4,7.12l3.4,109.11A7.23,7.23,0,0,1,628.94,591.25Z" transform="translate(-18.75 -205.65)"/><path class="cls-15" d="M631.52,590.21l-158.12,6a7.56,7.56,0,0,1-8-7.16l-3.67-113.54a7.4,7.4,0,0,1,7.51-7.54l158.4-1.45a7.39,7.39,0,0,1,7.41,7.11l3.39,109.12A7.22,7.22,0,0,1,631.52,590.21Z" transform="translate(-18.75 -205.65)"/><polygon class="cls-16" points="619.79 341.3 445.48 346.18 445.58 349.47 619.89 344.46 619.79 341.3"/><path class="cls-17" d="M538.63,569.21l-52.49,1.7a.52.52,0,0,1-.54-.49l-.18-5.54a.51.51,0,0,1,.51-.52l52.49-1.63a.51.51,0,0,1,.53.49l.17,5.47A.5.5,0,0,1,538.63,569.21Z" transform="translate(-18.75 -205.65)"/><path class="cls-14" d="M581.09,580l-94.55,3.34a.52.52,0,0,1-.54-.49l-.18-5.54a.51.51,0,0,1,.51-.52l94.56-3.2a.49.49,0,0,1,.52.47l.17,5.42A.5.5,0,0,1,581.09,580Z" transform="translate(-18.75 -205.65)"/><path class="cls-31" d="M479.75,520a1.5,1.5,0,0,1-1.35-2.15c5.52-11.41,11.92-17.62,19-18.46,4.37-.52,7.68,1.11,10.87,2.68,3.38,1.67,6.58,3.25,11.29,2.67,3.58-.44,5.29-1.79,7.46-3.5a24.15,24.15,0,0,1,9.6-5.06c5.3-1.43,8.6-.76,12.42,0a43.19,43.19,0,0,0,10.64,1.11c6.59-.13,10.11-1.59,14.56-3.44a70.3,70.3,0,0,1,12.5-4.14,78.91,78.91,0,0,1,30.89-.46,1.5,1.5,0,1,1-.51,3,76.23,76.23,0,0,0-29.72.43,67.72,67.72,0,0,0-12,4c-4.55,1.89-8.49,3.52-15.65,3.67a46.59,46.59,0,0,1-11.3-1.18c-3.58-.73-6.41-1.3-11-.05a21.09,21.09,0,0,0-8.53,4.51c-2.34,1.85-4.54,3.59-9,4.13-5.59.68-9.51-1.25-13-3-3-1.51-5.69-2.8-9.19-2.39-6,.71-11.63,6.36-16.67,16.78A1.5,1.5,0,0,1,479.75,520Z" transform="translate(-18.75 -205.65)"/><polygon class="cls-14" points="600.67 328.29 546.87 329.63 546.16 307.16 599.97 306.1 600.67 328.29"/><path class="cls-14" d="M511.66,486.32l-28.24.38a.52.52,0,0,1-.53-.5l-.18-5.55a.49.49,0,0,1,.5-.51l28.24-.34a.53.53,0,0,1,.53.5l.18,5.51A.5.5,0,0,1,511.66,486.32Z" transform="translate(-18.75 -205.65)"/><path class="cls-7" d="M234.57,756.37c-27.83,1.18-58.79,3.63-95.38,16.19-8.31,2.85-85.61,31.36-83.2,47.74,1.78,12.1,42.5,6.77,106.29,24.34,67.27,18.53,79.61,28.12,119.08,29.61,45.31,1.71,47.7-18,106.18-23.4,33.1-3.08,44.09,2.13,75.75,6,12.84,1.55,19.86,1.94,40.33,3,93.27,4.95,110,9.63,113.27,2.3,5.48-12.36-33.59-44.63-70.07-63.49-31.72-16.4-58.77-21.25-110.69-30.59C346.92,752,280.76,754.41,234.57,756.37Z" transform="translate(-18.75 -205.65)"/><path class="cls-8" d="M442.29,786.37C206.13,726.69,192.71,739,188.87,745.23c-7,11.38.82,32.1,15.2,50.93-12.66-2.65-25-2.86-35.35,1.13-21.38,8.26-48.84,1.6-49.46,7.74-.7,6.86,30,18.55,47.31,18.93,37.62.81,79,11.72,100.11,15.15,45.5,11.72,96.89-2.64,120.09-7,41.53-7.83,58.09-18.11,101.14-18.25,34.53-.1,59.93,6.22,60.42,4C549.28,813.51,454.24,789.4,442.29,786.37Z" transform="translate(-18.75 -205.65)"/><g class="cls-32"><path class="cls-33" d="M158.92,675.6h49.57s9.33-25.43-2.82-43.38c-24.78-36.61,9-55.76,22-65.9,19.54-15.29,28.15-35.05,4.65-47.87-26.58-14.5-3.15-53.09,32-73.24,34.36-19.72,19.15-92.17-59.14-56.33-46.76,21.41-39.43,71-41.69,96.89s-40.79,28.05-27.6,59.71c11.27,27,32.67,46.75,16.34,65.34S134.13,650.25,158.92,675.6Z" transform="translate(-18.75 -205.65)"/><path class="cls-6" d="M180.35,680.2c-.11-.64-11.61-64.64-3.88-131.55,4.55-39.32,14.76-71.95,30.33-97,19.51-31.32,47.52-50.73,83.26-57.7l.21,1.07C210,410.7,184.66,487.28,177.55,548.78c-7.72,66.74,3.75,130.59,3.87,131.23Z" transform="translate(-18.75 -205.65)"/><path class="cls-6" d="M199.22,465.13c-4.33-34.77,8.89-84.06,9-84.56l1,.28c-.13.5-13.3,49.59-9,84.15Z" transform="translate(-18.75 -205.65)"/><path class="cls-6" d="M212.81,444.64l-.57-.92c35.66-22.22,69-11.53,69.36-11.42l-.34,1C280.94,433.22,248,422.7,212.81,444.64Z" transform="translate(-18.75 -205.65)"/><path class="cls-6" d="M174.88,592.67l-1-.25c11.81-49.81,79.81-62.32,80.47-62.32l0,1.08C253.67,531.25,186.57,543.41,174.88,592.67Z" transform="translate(-18.75 -205.65)"/><path class="cls-6" d="M174.52,571.76c-6.49-31.23-40.47-52.79-40.82-53l.58-.92c.35.22,34.71,22,41.3,53.7Z" transform="translate(-18.75 -205.65)"/><path class="cls-6" d="M179.84,669.92l-1.09-.08c1.56-19.78,28.61-34.79,29.76-35.42l.52,1C208.75,635.53,181.34,650.73,179.84,669.92Z" transform="translate(-18.75 -205.65)"/><path class="cls-6" d="M176.88,654.83c-2.49-14.59-24.92-31.12-32.3-36.55a23.43,23.43,0,0,1-2.26-1.75l.81-.72c.14.15,1.05.82,2.1,1.6,7.46,5.49,30.15,22.22,32.72,37.24Z" transform="translate(-18.75 -205.65)"/></g><path class="cls-34" d="M267.38,596.89s-33.3-57.66-78.33,40.39c-35.07,76.35-12.4,161.29,68.72,184.59s207.82-23.76,168.05-56.93C341.46,694.57,277.43,632.2,267.38,596.89Z" transform="translate(-18.75 -205.65)"/><g class="cls-35"><path class="cls-36" d="M228.72,648.84c-2.22,7-6,26.74-5,49.61.89,20.41-1,31.08,31.51,45.93,11.13,5.09,18.82,21.23,35.87,30.84,7.72,4.35,36.83,20.11,74.41,13.74,24.87-4.21,43.39-16.41,55.86-27.78-82.13-68.82-144.09-129.61-154-164.29,0,0-12.17-21-31.73-16.07a45.8,45.8,0,0,1,11.5,24.11C249.33,620.2,236,625.77,228.72,648.84Z" transform="translate(-18.75 -205.65)"/></g><g class="cls-37"><path class="cls-38" d="M387.61,798.68c-38.37,21.19-102.44,34.12-150.18-1.34-44.2-32.83-48.14-87.81-49.61-104.58a163.11,163.11,0,0,1,11.41-75.46c-3.31,5.81-6.71,12.43-10.18,20-35.07,76.35-12.4,161.29,68.72,184.59,79.85,22.94,203.85-22.3,169.8-55.36A150.86,150.86,0,0,1,387.61,798.68Z" transform="translate(-18.75 -205.65)"/></g><path class="cls-39" d="M327.17,805.09c-1.14,0-2.29,0-3.44,0-29.66-.66-71.29-10.51-101.23-53.68-25.29-36.46-21.9-77.6-14.61-105.7A203.31,203.31,0,0,1,230,593a.65.65,0,0,1,1.09.7A201.65,201.65,0,0,0,209.13,646c-7.22,27.83-10.57,68.56,14.43,104.61,29.62,42.7,70.81,52.46,100.16,53.12a167.26,167.26,0,0,0,57.27-8.9.64.64,0,0,1,.46,1.2A168,168,0,0,1,327.17,805.09Z" transform="translate(-18.75 -205.65)"/><path class="cls-40" d="M486.28,799.52c-2.12-2.28-5.91-12.07,1-14.09s10.81-4.59,20.38-12.26,12-1.08-1.49,11.38S489.28,802.76,486.28,799.52Z" transform="translate(-18.75 -205.65)"/><path class="cls-41" d="M477.22,785.21l5.69,5a3.58,3.58,0,0,0,4.26.33,2.31,2.31,0,0,0,1.07-1.79,2.35,2.35,0,0,0-.8-1.93l-8.32-7.12Z" transform="translate(-18.75 -205.65)"/><path class="cls-42" d="M306.75,737.36c-10.05,8.81,10.94,37.7,44.47,28.33,40.64-11.34,92.32-6.24,127.16,22.12,2-1.8,7-4.62,4.74-6.93-31.48-31.83-60.62-50.1-84.77-55C361.85,718.47,335.39,712.27,306.75,737.36Z" transform="translate(-18.75 -205.65)"/><g class="cls-43"><path class="cls-44" d="M424.65,749.46c5.89,3.43,7.15-3.54,10.19-8.12-13-8-25.31-13.19-36.49-15.46-36.5-7.41-63-13.61-91.6,11.48-10.05,8.81,10.94,37.7,44.47,28.33a156.46,156.46,0,0,1,38.6-5.54C400.56,753.39,409.35,737.89,424.65,749.46Z" transform="translate(-18.75 -205.65)"/></g><path class="cls-45" d="M300.82,767.45l-2.07.79S285.4,755.64,283,752.42c-2.9-3.92,29.79-13.91,40.41-27,11.16-13.74,2.34,16.32,2.34,16.32Z" transform="translate(-18.75 -205.65)"/><path class="cls-46" d="M288.71,643.77s11.85,1.62,24.85,24.67c9.77,17.33,31,31.69,31,31.69l2.18,13.63-17.61,3.1-6.3-4.15-17.18-36.56Z" transform="translate(-18.75 -205.65)"/><path class="cls-47" d="M265.72,642.3s-29.21,3.6-29.84,37.22c-.58,31,10.61,43.05,38.08,68.92,2.76,2.61,7.24,2.61,7.58,3q2.67,3,5.42,6.3c24.58-23.59,52.3-31.58,52.3-31.58s-25.64-53-36.9-70.61C290.74,637.4,273.23,640.5,265.72,642.3Z" transform="translate(-18.75 -205.65)"/><g class="cls-48"><path class="cls-49" d="M314.24,720.62c-12.34,6.6-29.82,5.86-36.25-2.31-4.84-6.15-5.62-8.44-11.52-18.1-4.74-7.77-7.05-9-17.4-15.56a52.13,52.13,0,0,1-12.7-11.4,51,51,0,0,0-.49,6.27c-.58,31,10.61,43.05,38.08,68.92,2.76,2.61,7.24,2.61,7.58,3q2.67,3,5.42,6.3c24.58-23.59,52.3-31.58,52.3-31.58s-4.25-8.34-9.89-20.07C325.28,712.92,322.15,716.39,314.24,720.62Z" transform="translate(-18.75 -205.65)"/></g><path class="cls-50" d="M294.09,721.61s5.54.25,9.47-1.33,3.61-1.95,8.14-2.52,13.06-3.17,8.16-7.64c-5.46-5-14.83-3.57-17.52-.27a22.35,22.35,0,0,1-7.08,5.2Z" transform="translate(-18.75 -205.65)"/><path class="cls-51" d="M244.7,659.06s-16.23,1.89-6.76,54.14c4.91,27.11,29.19,23.29,58.5,12.09,2-4.15-.56-12.95-.56-12.95s-36.43,15-37.37-6.89C257.45,680.89,254.17,656.46,244.7,659.06Z" transform="translate(-18.75 -205.65)"/><path class="cls-52" d="M272.52,653.47c-7,0-14-5.15-14.37-5.4a.31.31,0,0,1-.07-.45.33.33,0,0,1,.45-.07c.09.07,9.35,6.81,16.83,5a6,6,0,0,0,4.19-3c1.37-2.81-.18-6.42-.2-6.46a.32.32,0,0,1,.17-.42.32.32,0,0,1,.42.16c.07.16,1.7,3.92.19,7a6.54,6.54,0,0,1-4.61,3.33A12.18,12.18,0,0,1,272.52,653.47Z" transform="translate(-18.75 -205.65)"/><path class="cls-53" d="M282.85,750.41a.32.32,0,0,1-.24-.11.33.33,0,0,1,0-.46c.27-.23,26.44-23.66,50.06-29.43a.32.32,0,0,1,.39.23.31.31,0,0,1-.23.39c-23.48,5.74-49.52,29.06-49.78,29.29A.33.33,0,0,1,282.85,750.41Z" transform="translate(-18.75 -205.65)"/><path class="cls-54" d="M258,622s4.15,16.76,3.32,20.19,4.08,7.15,12.67,7.54-.92-17.23-.92-17.23Z" transform="translate(-18.75 -205.65)"/><path class="cls-55" d="M287.19,605.66c5.36-8.85-1.45-21.58-12.57-17.17-7.58,3-12.39.88-17.42,2.74-8.94,3.3-8,9.66-5.9,16.12,1.79,12.83,1.72,17.89,15.44,25.38C272,614.58,280.66,616.46,287.19,605.66Z" transform="translate(-18.75 -205.65)"/><path class="cls-56" d="M259.62,628.14s5.52,9.14,16.58,8.46,7.92-26.1,5.14-27.55c-3.23-1.68-7.75.48-15.1-.69-3.1-.49-6-4.11-7.28,0-1.5,4.73-.38,11.88-.38,11.88s-3.42-3-5.14.18C252,623,254.35,626.24,259.62,628.14Z" transform="translate(-18.75 -205.65)"/><path class="cls-57" d="M258.81,603s-.53,15.16,3.23,19.86c1.71,2.95-.51,3-2.38.84s-3.89-9.13-3.89-9.13Z" transform="translate(-18.75 -205.65)"/><path class="cls-58" d="M261.09,591.6H261a.3.3,0,0,1-.31-.29A.29.29,0,0,1,261,591h0c.5,0,10.15-.68,12.24-4.7a.3.3,0,1,1,.54.28C271.56,590.84,262.09,591.54,261.09,591.6Z" transform="translate(-18.75 -205.65)"/><path class="cls-59" d="M298,728.63a.72.72,0,0,0-.58.49s.1,1.36.09,1.4a.68.68,0,0,0,.46.69l24.85,8.07,46.43-18.19-22.06,1.69Z" transform="translate(-18.75 -205.65)"/><path class="cls-60" d="M298,728.45a.69.69,0,0,0-.57.6.67.67,0,0,0,.46.69l24.85,8.07,46.43-18.18-22.06,1.69Z" transform="translate(-18.75 -205.65)"/><path class="cls-61" d="M321.61,737.45l3.7-48.44a1.68,1.68,0,0,1,1.41-1.53l55.61-8.7a1.66,1.66,0,0,1,1.38.41,1.71,1.71,0,0,1,.56,1.33l-2.09,45.14a1.7,1.7,0,0,1-1.37,1.58L323,737.93Z" transform="translate(-18.75 -205.65)"/><path class="cls-59" d="M322.8,739.28l3.82-49.51a1.68,1.68,0,0,1,1.41-1.53l55.61-8.7a1.67,1.67,0,0,1,1.93,1.74l-2.09,45.15a1.66,1.66,0,0,1-1.36,1.57Z" transform="translate(-18.75 -205.65)"/><path class="cls-62" d="M322.8,739.28,382.12,728a1.66,1.66,0,0,0,1.36-1.57l.63-13.62c-17.67,10-39.81,11.31-60.45,15.34Z" transform="translate(-18.75 -205.65)"/><path class="cls-63" d="M423.28,729.13c-.82-2.82-2.61-5.93,3.79-8.2,4.64-1.65,12.71-2.18,20-2.55,10.28-.53,12.64,5.62-2.37,9.53C434.9,730.47,424.43,733.14,423.28,729.13Z" transform="translate(-18.75 -205.65)"/><path class="cls-64" d="M431.28,724.82a2.73,2.73,0,0,1-2.22,3c-3,.43-2.47-1.13-2.56-2.71s-1.33-2.67,2.22-3A2.63,2.63,0,0,1,431.28,724.82Z" transform="translate(-18.75 -205.65)"/><path class="cls-65" d="M400.08,715.76l3-.48s5.85.55,22,5c3.45.58,8.15,10.64-2,11s-22.41,7.92-22.41,7.92Z" transform="translate(-18.75 -205.65)"/><path class="cls-66" d="M295.15,762.6s1.47,13.06,31.84,11.87,84.65-32.72,84.3-49.27-20.53-9.94-41.44-.37c-17.64,8.07-44.9,12.75-50.49,13.61C312.21,739.55,293.42,756.32,295.15,762.6Z" transform="translate(-18.75 -205.65)"/><g class="cls-48"><path class="cls-67" d="M334.89,746.22c14.06-1.43,17.22-11.52,34.72-14.44,11.33-1.89,15.34,1.46,21.12-2.41,4.56-3,6.89-8.38,8-14.17-7.75.66-18.22,4.75-28.89,9.63-17.14,7.84-43.35,12.48-50,13.53-.19,0-4.62-1.55-4.62-1.55s-3.3,1.88-5.67,3.37C318.82,745.12,329.76,746.75,334.89,746.22Z" transform="translate(-18.75 -205.65)"/></g><path class="cls-68" d="M139.45,768.71c-9,14.2-4.33,30.21.73,41.24a15.31,15.31,0,0,1,3.85,1.33c13.48,5.23,28,7.86,42,10.76,3,.62,6,.77,9.05,1.16l3.12.32s20.17-42.76,2.71-55.41-5.42-48.3-1.21-68.06c11.45-53.61-47.74-56.43-38.54-126.49,2.44-18.63,13.34-53.35-.41-70.27-15.66-19.27-30.91-4.41-40.55-20.07C105.12,458.74,77,447,56.57,467.39,36.44,487.57,51.39,535,98.5,577.78c30.33,34.51,29.68,43.55,24.09,65.05-3.92,15.06-23.79,53-5.12,71.67S149.74,752.48,139.45,768.71Z" transform="translate(-18.75 -205.65)"/><g class="cls-69"><path class="cls-13" d="M171.92,818.15h-1.09c0-6.24,0-12.55-.09-18.74-.79-45.79-5.82-89.84-15-130.93a528.26,528.26,0,0,0-32.06-98.63,441.4,441.4,0,0,0-37.78-68.71,353.52,353.52,0,0,0-31.46-40.21c-1.89-2.06-3.95-4.08-5.94-6-2.68-2.64-5.45-5.36-7.88-8.26l.83-.7c2.4,2.86,5.15,5.57,7.82,8.18,2,2,4.06,4,6,6.08a352.53,352.53,0,0,1,31.56,40.33,441.91,441.91,0,0,1,37.87,68.88,528.44,528.44,0,0,1,32.13,98.83c9.16,41.16,14.2,85.29,15,131.15C171.94,805.58,172,811.9,171.92,818.15Z" transform="translate(-18.75 -205.65)"/><path class="cls-13" d="M138.67,607.86c-13.75-43.34,13-116.27,13.22-117l1,.38c-.27.72-26.84,73.3-13.2,116.29Z" transform="translate(-18.75 -205.65)"/><path class="cls-13" d="M166.28,731.47c-5.75-29.82-56.7-59.16-57.21-59.46l.54-.94c.51.29,51.89,29.89,57.74,60.2Z" transform="translate(-18.75 -205.65)"/><path class="cls-13" d="M168.12,749c-.27-20.35,10.2-48.17,29.47-78.34.42-.66.79-1.22.84-1.33l.41.2h.64c0,.21,0,.21-1,1.72-19.16,30-29.57,57.59-29.3,77.74Z" transform="translate(-18.75 -205.65)"/><path class="cls-13" d="M170.76,806.72C164.29,786,134.14,774.16,133.84,774l.39-1c.31.12,30.94,12.19,37.56,33.38Z" transform="translate(-18.75 -205.65)"/><path class="cls-13" d="M172.43,818.44l-1-.38c6.28-16.95,17.61-32.63,34.63-47.95l.73.81C189.88,786.12,178.64,801.66,172.43,818.44Z" transform="translate(-18.75 -205.65)"/><path class="cls-13" d="M94.11,513.64c-9-23.6-12.9-50.42-14.19-59.24-.22-1.53-.4-2.74-.46-2.93l1-.35c.09.26.2,1,.51,3.13,1.29,8.78,5.21,35.51,14.13,59Z" transform="translate(-18.75 -205.65)"/><path class="cls-13" d="M114.26,549.68c-14.21-18.23-62-24-62.51-24.06l.13-1.08c2,.23,48.75,5.88,63.23,24.47Z" transform="translate(-18.75 -205.65)"/></g><path class="cls-70" d="M138.92,809.73a5.79,5.79,0,0,0,.57.25c13.56,5.23,27.95,7.86,42,10.76,1.89.39,3.79.72,5.7,1,2.53-7.08,4.47-17.52-4.61-20.32-14.11-4.34-14.25-29.2-10.31-38,4.88-10.85,15.73-36.34-6-43.4-18.06-5.87-30.92-6-32-29.29s-13.7-38-34.85-36.75c-22.27,1.28-40.28-28.48-58.59-18.72-31.9,17-3.53,68.63,35,83.81s16.24,28.94,15,48c-1.63,26,33.63,20.75,42.86,31.06A21.41,21.41,0,0,1,138.92,809.73Z" transform="translate(-18.75 -205.65)"/><g class="cls-71"><path class="cls-13" d="M160.6,816.46C145.82,741.41,94.69,673.89,27.17,640.27l.49-1c67.81,33.78,119.16,101.58,134,177Z" transform="translate(-18.75 -205.65)"/><path class="cls-13" d="M150.07,776.06H149c.14-30.68,26.44-54.4,26.71-54.64l.72.81C176.15,722.47,150.21,745.88,150.07,776.06Z" transform="translate(-18.75 -205.65)"/><path class="cls-13" d="M157.49,802.67c-14.14-26.48-69.14-30.49-69.7-30.53l.08-1.08c.56,0,56.16,4.09,70.58,31.1Z" transform="translate(-18.75 -205.65)"/><path class="cls-13" d="M112,710.5c-9.75-22.73,5.12-57.37,5.27-57.71l1,.43c-.15.34-14.83,34.55-5.27,56.86Z" transform="translate(-18.75 -205.65)"/><path class="cls-13" d="M78.61,674.92C55.46,660.55,19.35,668.3,19,668.38l-.24-1.06c.37-.08,36.92-7.92,60.43,6.67Z" transform="translate(-18.75 -205.65)"/></g><path class="cls-72" d="M201.63,823.51l.36,1.76c-30.51-.21-67.42-14.92-67.78-15.06s.36-2,.47-2.28a.52.52,0,0,1,.68-.28c.35.14,36,14.61,66.27,14.82a.52.52,0,1,1,0,1Z" transform="translate(-18.75 -205.65)"/><path class="cls-14" d="M683.8,467.46l-159.26-8.31a6.45,6.45,0,0,1-6.26-8.1l26.61-115.83a9.06,9.06,0,0,1,9.59-6.73l156.1,16.4a6.19,6.19,0,0,1,5.34,7.76l-23.55,108A8.73,8.73,0,0,1,683.8,467.46Z" transform="translate(-18.75 -205.65)"/><path class="cls-73" d="M685.79,468l-159.08-8.34c-4.42-.23-7.23-3.81-6.26-8l26.47-114.11a9,9,0,0,1,9.58-6.62l155.92,16.3a6.11,6.11,0,0,1,5.34,7.66L694.34,461.3A8.68,8.68,0,0,1,685.79,468Z" transform="translate(-18.75 -205.65)"/><polygon class="cls-16" points="683 222.27 509.98 210.16 509.21 213.48 682.32 225.36 683 222.27"/><polygon class="cls-16" points="634.41 135.4 615.45 219.83 618.68 220.05 637.6 135.74 634.41 135.4"/><path class="cls-17" d="M608.6,441.05,546,437.18a.44.44,0,0,1-.42-.54l1.29-5.58a.65.65,0,0,1,.65-.47l62.5,4a.42.42,0,0,1,.4.52l-1.23,5.44A.62.62,0,0,1,608.6,441.05Z" transform="translate(-18.75 -205.65)"/><path class="cls-14" d="M622.3,454.23l-79.16-4.49a.43.43,0,0,1-.42-.54l1.29-5.59a.66.66,0,0,1,.65-.48l79.09,4.7a.42.42,0,0,1,.39.52l-1.22,5.42A.61.61,0,0,1,622.3,454.23Z" transform="translate(-18.75 -205.65)"/><polygon class="cls-14" points="685.73 169.41 639.89 165.17 643.93 147.1 689.65 151.68 685.73 169.41"/><polygon class="cls-14" points="676.28 212.26 630.11 208.85 638.16 172.88 684.07 176.97 676.28 212.26"/><path class="cls-16" d="M593.91,365.83c7.4.68,12.08,7,10.46,14.14a14.4,14.4,0,0,1-2.6,5.47l14,8.37a33,33,0,0,0,5.76-12.36c3.66-16.21-6.92-30.71-23.79-32.38h-.13l-3.83,16.76Z" transform="translate(-18.75 -205.65)"/><path class="cls-74" d="M601.77,385.44a16,16,0,0,1-13.8,6.37c-7.48-.61-12.25-7-10.6-14.18s9-12.42,16.4-11.81l3.83-16.76c-17.06-1.62-34.19,10.46-38,27s7.26,31.29,24.53,32.57c12.34.92,24.49-5.24,31.64-14.85Z" transform="translate(-18.75 -205.65)"/><g class="cls-75"><path class="cls-76" d="M531.78,389.68c-2.19,2,5.72,19.16,20,32.65,14.45,13.66,25.33,14,36.64,30.22,5.47,7.86,3.5,8.6,7.75,14.24,16.65,22.12,60.52,28.8,78.19,11.74,1.85-1.78,6-9.68,14.24-25.48a188.17,188.17,0,0,0,9.41-21.4c3.63-9.85,5.64-15.41,3.66-17-4-3.23-18,14.37-27.31,10.33-5.87-2.56-2.89-12.17-10.66-19-6.28-5.5-14.85-5.23-17.07-5.16-19.38.62-21.56,22-39.72,26-15.1,3.34-31.09-7.55-54.46-23.48C540,394.84,533.38,388.24,531.78,389.68Z" transform="translate(-18.75 -205.65)"/></g><path class="cls-77" d="M534.94,396.84l-4-4a10.21,10.21,0,0,1-1-9.37c2-5.5,4.75-4,4.75-4l-.75,3.87s-.5,2.5,1.88,5.62a20.19,20.19,0,0,1,2.49,6.63Z" transform="translate(-18.75 -205.65)"/><path class="cls-78" d="M701.32,412.42l4.5-4.08,2-7.42s5.49,2.17,2.49,9.16c-1.91,2.34-6.62,5.83-8.62,9.25S701.32,412.42,701.32,412.42Z" transform="translate(-18.75 -205.65)"/><path class="cls-79" d="M657,462.13s21.57-13.32,26.81-18.07c5.47-4.95,19.86-24,21.11-26.23s-3.87-6.75-3.87-6.75S676,442.39,644.53,433.15C649.52,444.39,657,462.13,657,462.13Z" transform="translate(-18.75 -205.65)"/><path class="cls-80" d="M660.14,646.12s4,10,2.92,14.37a45,45,0,0,0,7-.63,47.77,47.77,0,0,1-2-6.79,67,67,0,0,1-.42-8Z" transform="translate(-18.75 -205.65)"/><path class="cls-59" d="M616.54,669.4a3.13,3.13,0,0,1,.75,1.82,2.94,2.94,0,0,1-.23,1.23c-.67,1.77-1.73,2-2.88,3.89-.69,1.15-.56,1.5-1.2,2a4.24,4.24,0,0,1-2.75.73,47,47,0,0,1-6.35-.36c1.41-1.83,2.92-3.69,4.53-5.56.7-.83,1.41-1.63,2.11-2.41l4.17-1.41Z" transform="translate(-18.75 -205.65)"/><path class="cls-81" d="M613.07,649.13s-2.39,12.45.65,15.94c2.58,3.48-1.25,1-1.25,1l-4.58,4-2.75,4.75s2.53-12.19,1.85-17-1-8.1-1-8.1Z" transform="translate(-18.75 -205.65)"/><path class="cls-82" d="M624.88,433.07c-11.62-2-28.25,3.92-47.47-6.25-18.91-10-30.09-24.76-36.6-34.22l-8.49,4.2c4.81,8.29,16.13,26.07,31.14,38.45,18.88,15.58,37.36,16.49,47.43,29.21C615.62,459.77,630.54,434,624.88,433.07Z" transform="translate(-18.75 -205.65)"/><path class="cls-83" d="M604.07,513s-6.41,5.74-6.41,29.35,3,74.89,3,74.89l4.86,36.71a31.91,31.91,0,0,0,8.41-.84c3-13.83,8-37.22,5.62-56.79-1-21.25,8.43-47.9,8.43-47.9s8.1,27,13.83,40.48,16.65,55.77,17.67,58.8c6.71.61,9.57-1.16,9.57-1.16s-4.3-45.49-8.35-62.7-3.71-58.69-10.45-70.5C635.11,507.23,604.07,513,604.07,513Z" transform="translate(-18.75 -205.65)"/><path class="cls-84" d="M604.07,513s-6.41,5.74-6.41,29.35,3,74.89,3,74.89l4.86,36.71a31.91,31.91,0,0,0,8.41-.84c3-13.83,8-37.22,5.62-56.79-1-21.25,8.43-47.9,8.43-47.9s8.1,27,13.83,40.48,16.66,55.77,17.67,58.8c6.71.61,9.57-1.16,9.57-1.16s-4.3-45.49-8.35-62.7-3.71-58.69-10.45-70.5C635.11,507.23,604.07,513,604.07,513Z" transform="translate(-18.75 -205.65)"/><path class="cls-85" d="M637.37,556.23c2,13,6,20,16,29,8,6,2,19,5,29,1,3,4,6,5,9,3.72,7.44.24,16.53,1.93,24.41a10.66,10.66,0,0,0,3.81-1.09s-4.3-45.49-8.35-62.7-3.71-58.69-10.45-70.5c-15.18-6.07-46.22-.34-46.22-.34s-6.41,5.74-6.41,29.35c0,1.92,0,4,.06,6.25,6.65,5.89,20.26,7.2,28.65.67a3.93,3.93,0,0,1,1.61-.72,1.11,1.11,0,0,1,0-.13l0,.12C631.88,547.8,636.5,552.76,637.37,556.23Z" transform="translate(-18.75 -205.65)"/><path class="cls-59" d="M662,664.26s-1,0-.91,1.28-.44,5.65,4.57,5.85,5.78-.35,6-.35a42.18,42.18,0,0,0-1.32-4.19l-1.6-2.05-4.31-.46Z" transform="translate(-18.75 -205.65)"/><path class="cls-60" d="M673.13,668.66a15.88,15.88,0,0,0-1.3-4.06c-.88-2-.16-2.74-1-4.55a5.33,5.33,0,0,0-1.2-1.81,5.1,5.1,0,0,0-3.53-1.35,3.58,3.58,0,0,0-1.67.39,3.86,3.86,0,0,0-1.5,1.58c-.52.86-.4,1.12-1.21,3.58a10.51,10.51,0,0,0-.31,1.22,6.94,6.94,0,0,0-.13,1.09c1.31,0,6.36.21,7.43,1a4.19,4.19,0,0,1,1.6,3.41c0,1.31.66,1.93,1.32,1.89A2.17,2.17,0,0,0,673.13,668.66Z" transform="translate(-18.75 -205.65)"/><path class="cls-60" d="M612.43,663.32c1.13,0,2,.91,2.58,3.08s3.62,4.08.12,3.62-6,4.5-7.28,6.33-4.61,3.46-4.52,1.67,1.56-2.63,2-4.46S609.85,663.28,612.43,663.32Z" transform="translate(-18.75 -205.65)"/><path class="cls-86" d="M636.2,432.32c-5.66-.17-20.07-1.74-26.81,5-6.9,6.89.08,15.16-1.16,26.51-.84,7.7-.54,12.24-2,24.82a77.5,77.5,0,0,1-1.6,8.92c-1.92,8.2-5.27,24.33-7.07,28.36,5.77,3,20.63,8.26,38.34,5.63a60,60,0,0,0,19.12-6.3c-4.6-13.91-3.74-33-2-39.84,3.36-13.55,4.12-18.87,13.62-38.35,2.61-5.37-3.6-2.37-7.58-7.08C652.91,432.75,641.91,432.49,636.2,432.32Z" transform="translate(-18.75 -205.65)"/><path class="cls-87" d="M619.38,467.79a21.12,21.12,0,0,0-1.5-11.86,18,18,0,0,0-4-5.5c-5-4.61-11.5-4.31-18.9-4.84a114.87,114.87,0,0,1-22.72-4c14.21,8.91,27.44,11.66,36.11,20.11,0,.7-.06,1.41-.14,2.13-.84,7.7-.54,12.24-2,24.82a77.5,77.5,0,0,1-1.6,8.92c-1.92,8.2-5.27,24.33-7.07,28.36,5.77,3,20.63,8.26,38.34,5.63a60,60,0,0,0,19.12-6.3,67.68,67.68,0,0,1-2.81-13.69,57.55,57.55,0,0,1-25.84-6c-5.48-2.79-8.23-4.18-9.86-7.25C613.37,492.37,617.18,486.88,619.38,467.79Z" transform="translate(-18.75 -205.65)"/><path class="cls-88" d="M628,415.56c.82-6.33,5.82-10.38,6.91-11.25,4.57-3.63,5.5-4,7.07-4.3l2.14-.32h.23a21.41,21.41,0,0,1,5.7,2c2.18,1.54.58,12.42-6,25.94l-.78,3.44c5.77,1,7.19,2,7.24,2.88.1,1.8-6.22,4.1-12.07,4.25-7.35.19-15.14-3-15-5.33.06-.95,1.44-2.13,6.77-3.29l2.5-3.51C631.9,425.18,627.36,420.22,628,415.56Z" transform="translate(-18.75 -205.65)"/><path class="cls-89" d="M642,395.56c-2.31,2.25-2.87,6.17-2.19,9,.41,1.69.93,1.87.86,3-.21,3.1-5.86,4.45-5.55,6,.23,1.11,3.17.7,3.67,2.1s-2.67,2.86-4.06,6.72c-.21.6-1.53,4.26.16,6.4s5.09,1.54,9.06,1a32.05,32.05,0,0,0,8.43-2.26c2.9-1.28,6-2.64,8.59-5.78a17.59,17.59,0,0,0,3.91-11.56c-.4-8.28-7.32-15.36-14.45-16.48C649.23,393.51,644.77,392.8,642,395.56Z" transform="translate(-18.75 -205.65)"/><path class="cls-90" d="M637,413.17c1.67-1,2.94,1.15,2.15,3s-3.42,3.05-5,1.93S634.8,414.52,637,413.17Z" transform="translate(-18.75 -205.65)"/><path class="cls-91" d="M620.25,432.57l4.06-1.25s1.07,5.5,14.12,6.18a19.53,19.53,0,0,0,11.93-4.06l3.12,1.44s-6.44,8.19-16.11,8A19.44,19.44,0,0,1,620.25,432.57Z" transform="translate(-18.75 -205.65)"/><g class="cls-92"><polygon class="cls-93" points="311.33 334.45 195.16 527.15 506.79 527.15 396.16 338.44 311.33 334.45"/></g><path class="cls-94" d="M371.11,286.67a.54.54,0,0,1-.54-.54v-8a.55.55,0,0,1,1.09,0v8A.55.55,0,0,1,371.11,286.67Z" transform="translate(-18.75 -205.65)"/><path class="cls-94" d="M371.11,506.51a.55.55,0,0,1-.54-.54V286.13a.55.55,0,0,1,1.09,0V506A.55.55,0,0,1,371.11,506.51Z" transform="translate(-18.75 -205.65)"/><path class="cls-94" d="M371.11,514.5a.54.54,0,0,1-.54-.54v-8a.55.55,0,1,1,1.09,0v8A.55.55,0,0,1,371.11,514.5Z" transform="translate(-18.75 -205.65)"/><path class="cls-94" d="M371.11,240.71a.55.55,0,0,1-.54-.55v-8a.55.55,0,0,1,1.09,0v8A.55.55,0,0,1,371.11,240.71Z" transform="translate(-18.75 -205.65)"/><path class="cls-94" d="M371.11,256a.54.54,0,0,1-.54-.54V240.16a.55.55,0,0,1,1.09,0v15.33A.55.55,0,0,1,371.11,256Z" transform="translate(-18.75 -205.65)"/><path class="cls-94" d="M371.11,264a.54.54,0,0,1-.54-.54v-8a.55.55,0,1,1,1.09,0v8A.55.55,0,0,1,371.11,264Z" transform="translate(-18.75 -205.65)"/><path class="cls-94" d="M371.11,219.85a.55.55,0,0,1-.54-.55V206.19a.55.55,0,0,1,1.09,0V219.3A.55.55,0,0,1,371.11,219.85Z" transform="translate(-18.75 -205.65)"/><path class="cls-95" d="M417.47,549V534.81a20.06,20.06,0,0,0-20-20H344.77a20.06,20.06,0,0,0-20,20V549Z" transform="translate(-18.75 -205.65)"/><ellipse class="cls-96" cx="352.43" cy="342.82" rx="46.42" ry="9.19"/><path class="cls-97" d="M371.18,536.55c-19.65,0-36.8-2.79-40.77-6.63a.32.32,0,1,1,.45-.46c3.86,3.74,20.82,6.45,40.32,6.45,18.12,0,34.37-2.39,39.5-5.8a.32.32,0,0,1,.45.09.34.34,0,0,1-.09.45C405.73,534.18,389.71,536.55,371.18,536.55Z" transform="translate(-18.75 -205.65)"/><path class="cls-98" d="M389.42,515.51a7.92,7.92,0,0,0-7.9-7.78H360.71a7.92,7.92,0,0,0-7.9,7.9h0s0,0,0,0c0,2,8.2,3.63,18.32,3.63s18.33-1.63,18.33-3.63A1.24,1.24,0,0,0,389.42,515.51Z" transform="translate(-18.75 -205.65)"/><path class="cls-99" d="M788.2,777.47c5.95,8.88,36.84-.16,56.83-9.88,32.29-15.7,31.06-30.69,58.06-43.86,39-19,77.43-5.12,79.07-13.28,1.07-5.36-14.74-15.25-31.51-18.53-19.47-3.8-28.85,3.55-74.12,17.61-36.56,11.35-40.24,9.6-52.68,17.76C801,742.3,782.31,768.67,788.2,777.47Z" transform="translate(-18.75 -205.65)"/><path class="cls-59" d="M972.27,661a5,5,0,0,1,5-1.31c3.27,1,3.24,7.34,4,14.13.87,7.7,2.13,15.86-1.32,15.82-1.53,0-4.31-4.69-4.86-9a43.91,43.91,0,0,0-2.59-10,28.58,28.58,0,0,1-.74-4.27C971.56,663.68,971.41,662.14,972.27,661Z" transform="translate(-18.75 -205.65)"/><path class="cls-100" d="M976.48,666.56c0,3.33-5.6,4.67-9,4.67s-3.29-1.34-3.29-4.67.13-5.75,3.52-5.75S976.48,663.23,976.48,666.56Z" transform="translate(-18.75 -205.65)"/><path class="cls-101" d="M828.74,724.82q-2.76,10.95-5.53,21.89a5.2,5.2,0,0,0,3.31,2.62c2,.37,3.79-1,4.46-1.59,1.43-10.33,3.94-16.86,6.4-21.14,1.73-3,3.43-4.91,3.3-6C840.44,718.67,834.48,721.58,828.74,724.82Z" transform="translate(-18.75 -205.65)"/><path class="cls-102" d="M815.53,592.48l-3.38.5a57.5,57.5,0,0,0-9.49.37c-3.5.63-5.5,2.38-5.5,6s4.42,4.07,8.24,4.5c2.33.26,5.51-1.7,7.92-3.52,1.7-1.27,6-2.41,6-2.41Z" transform="translate(-18.75 -205.65)"/><path class="cls-103" d="M839.06,470.93c-4.26,2.84-5,11-3.91,15.92a36.24,36.24,0,0,0,3.85,9.81c.85,2.17,1.59,4.21,2.18,6,.43,1.34.74,2.4,1,3.55a43.44,43.44,0,0,1,1.07,6.47.29.29,0,0,0,.28.26h0a.26.26,0,0,0,.25-.3,44.51,44.51,0,0,0-1.08-6.55c-.28-1.16-.59-2.24-1-3.59-.31-1-.66-2-1.05-3a29.87,29.87,0,0,1,3.61,10.06c2.34,13.53,15.33,17.48,23,14.57a20.58,20.58,0,0,0,12.54-15.77C882.55,488.05,848.43,464.69,839.06,470.93Z" transform="translate(-18.75 -205.65)"/><path class="cls-104" d="M865.83,587.24c-9.94,17.29-16.37,43-24.7,72.14-7.48,26.16-14,49.58-17.28,67.91a36.73,36.73,0,0,0,5.76,3.88,39.05,39.05,0,0,0,21.75,4.29,174.58,174.58,0,0,1,2.45-20.38c2.17-12,6-34.29,15.21-54.48,6.37-14,9.56-21,14.94-25.8,3.31-2.94,11-9.17,12.3-18.65a8.53,8.53,0,0,0,.08-1.2C896.29,601.68,871.67,589.87,865.83,587.24Z" transform="translate(-18.75 -205.65)"/><path class="cls-105" d="M865.83,587.24c-5.43,9.45-9.82,21.43-14,35.09,9.94,5.33,18.42,14.25,14.54,25.12-3.71,11.12-17.6,15.75-20.38,28.72-2.78,13.9,3.7,25.94.92,39.84a115.79,115.79,0,0,0-2.1,19.49,41.51,41.51,0,0,0,6.58,0,174.58,174.58,0,0,1,2.45-20.38c2.17-12,6-34.29,15.21-54.48,6.37-14,9.56-21,14.94-25.8,3.31-2.94,11-9.17,12.3-18.65a8.53,8.53,0,0,0,.08-1.2C896.29,601.68,871.67,589.87,865.83,587.24Z" transform="translate(-18.75 -205.65)"/><path class="cls-106" d="M875.12,611.68a4.1,4.1,0,0,0-.33,1.44c-.2,4.92,8.9,11.36,28.66,42.89,3.49,5.57,9.44,15.31,19.08,18.2a19,19,0,0,0,3.1.66,19.74,19.74,0,0,0,5.53,0c2.39-.34,11.66,0,38.06,2.36.21-.47,4.71-10.94-1.05-18.18a13.85,13.85,0,0,0-5.26-4c-6.19-.93-11.39-1.41-15.31-1.68a66.15,66.15,0,0,0-11.1,0c-2.3.2-4.21.51-5.54.75-9.44-27.21-4.81-50.85-16.16-51.35C912.54,602.6,877.44,604.82,875.12,611.68Z" transform="translate(-18.75 -205.65)"/><path class="cls-107" d="M844.57,538.58c-5.77,2,2.9,22.6-8.91,38.39-6,8-15,11.77-22.8,13.72,1.59,5.11,1.32,5.13,2.92,10.24,4.11.17,19.46.32,32.45-10.84,3.31-2.84,13.56-11.65,14.23-25.34C863.3,547.31,850,536.7,844.57,538.58Z" transform="translate(-18.75 -205.65)"/><path class="cls-108" d="M851.66,518.41c-2.89,3.45-4.1,6.63-5.63,10.77-2.42,6.56-3.8,10.3-3.62,15,.34,8.94,6.24,15.43,9.06,18.13,6.17,19.8,7.59,24.43,7.6,24.5v.12A55.86,55.86,0,0,1,857.26,597c-3.06,11.09-7.33,13.17-6.24,17.17,1.91,7,17.55,9.88,29.46,8.61,6.31-.67,6.89-2,12.24-2.95,22.46-3.94,32.81,16,47.51,10.88,10.45-3.64,10.6-15.74,24.17-18.13,4.74-.83,10-.31,10.43-2.11s-4-4.58-7.71-6.05c-8-3.17-15.45-1.12-18.73-.6-14.7,2.32-29.67-13-38.65-22.14-25.38-25.93-24.67-62-24.37-69.53-2-1.08-9.37-4.7-25.55-.34A27.35,27.35,0,0,0,851.66,518.41Z" transform="translate(-18.75 -205.65)"/><path class="cls-109" d="M974.83,610.46c.43-1.76-4-4.58-7.71-6.05-8-3.17-15.45-1.12-18.73-.6-14.7,2.32-29.67-13-38.65-22.14-12.75-13-18.91-28.6-21.85-41.84-2,14.75-7.31,29.71-1.17,42.76,4.64,12,22.24,11.12,28.73,25,2.78,5.56,10.19,4.63,16.67,5.56,4.64,0,6.49,7.41,13,6.48,2.78-.92,4.64-5.56,6.49-5.56,2.36,0,4.9,0,7.51.17a19.84,19.84,0,0,1,5.31-1.69C969.14,611.74,974.38,612.26,974.83,610.46Z" transform="translate(-18.75 -205.65)"/><path class="cls-110" d="M898.38,612.72c-1.7,1.35-5.54,4-10.2,4.12a10.76,10.76,0,0,1-3.82-.56,12.12,12.12,0,0,1-5-3.39,84,84,0,0,1,11-4.63l3.55-1Z" transform="translate(-18.75 -205.65)"/><path class="cls-111" d="M951.64,584.41l-84.45,34a4.28,4.28,0,0,1-5.58-2.37l-19.11-48a4.28,4.28,0,0,1,2.37-5.58l84.46-34a4.29,4.29,0,0,1,5.58,2.38l19.11,48A4.28,4.28,0,0,1,951.64,584.41Z" transform="translate(-18.75 -205.65)"/><path class="cls-112" d="M953.23,584.91l-84.46,34a4.28,4.28,0,0,1-5.58-2.37l-19.11-48a4.28,4.28,0,0,1,2.37-5.58l84.46-34a4.29,4.29,0,0,1,5.58,2.38l19.11,48A4.28,4.28,0,0,1,953.23,584.91Z" transform="translate(-18.75 -205.65)"/><path class="cls-16" d="M881,573.69a9.85,9.85,0,0,1,9.27,8.54,7.86,7.86,0,0,1-.41,3.62L900,590.56a18.05,18.05,0,0,0,.87-8.17c-1.22-10.57-10.68-19.36-21.18-19.59h-.08l1.26,10.9Z" transform="translate(-18.75 -205.65)"/><path class="cls-113" d="M889.84,585.85a7.08,7.08,0,0,1-6.92,4.68,9.82,9.82,0,0,1-9.31-8.54,7.18,7.18,0,0,1,7.29-8.29l-1.26-10.9c-10.53-.18-18.14,8.34-16.9,19s10.89,19.51,21.44,19.59A16.25,16.25,0,0,0,900,590.56Z" transform="translate(-18.75 -205.65)"/><path class="cls-114" d="M941.38,557.9l-35.22,14.42a.33.33,0,0,1-.43-.18l-1.35-3.36a.33.33,0,0,1,.18-.43L939.8,554a.33.33,0,0,1,.42.19l1.33,3.31A.32.32,0,0,1,941.38,557.9Z" transform="translate(-18.75 -205.65)"/><path class="cls-114" d="M938.41,550.77l-35.22,14.42a.33.33,0,0,1-.43-.18l-1.35-3.36a.33.33,0,0,1,.17-.43l35.25-14.37a.33.33,0,0,1,.42.19l1.33,3.31A.32.32,0,0,1,938.41,550.77Z" transform="translate(-18.75 -205.65)"/><path class="cls-114" d="M947.18,572.61,912,587a.33.33,0,0,1-.42-.18l-1.36-3.36a.33.33,0,0,1,.18-.43l35.25-14.37a.32.32,0,0,1,.41.18l1.34,3.31A.33.33,0,0,1,947.18,572.61Z" transform="translate(-18.75 -205.65)"/><path class="cls-114" d="M944.21,565.48,909,579.9a.32.32,0,0,1-.42-.18l-1.36-3.36a.33.33,0,0,1,.18-.43l35.24-14.37a.32.32,0,0,1,.42.18l1.34,3.31A.34.34,0,0,1,944.21,565.48Z" transform="translate(-18.75 -205.65)"/><path class="cls-115" d="M875.14,519.86c8.61-8.35,35.39,1.12,45.47,23,8.68,18.81,11.22,33.23,2.44,51.73a45.74,45.74,0,0,1-22.68,22.11c-.71-1.23-3.28-3.39-6.67-8.52,8.54-3.2,16.58-18.62,17.48-28.1,1.2-12.59-5.46-24.69-11.67-29.14-5.8-4.15-23.45.6-29-3.32C863.15,542.42,868.53,526.29,875.14,519.86Z" transform="translate(-18.75 -205.65)"/><path class="cls-116" d="M860.59,485.73c-1.49,7.08-2.1,15.61,2.65,20,4.19,3.88,10.2,2.38,10.63,4.42.84,4-21.94,13-23.66,10.12-.84-1.4,6.31-4.63,6.16-9.78-.06-2.15-1-3.63-6.55-11.25l-1.85.65Z" transform="translate(-18.75 -205.65)"/><path class="cls-117" d="M933,493.2c-3.63-11-14.78-16.64-16.89-17.59-13.11-5.93-18.19,2.07-33.65-3.51-.68-.24-1.32-.49-1.93-.75a38.87,38.87,0,0,0,12.33,2l1,0h.29a43.62,43.62,0,0,0,6.2-.74c1.46-.24,2.83-.47,3.89-.55a18.71,18.71,0,0,1,6.48.48l.93.19a.23.23,0,0,0,.27-.17.23.23,0,0,0-.18-.27l-.92-.2a19.23,19.23,0,0,0-6.62-.48c-1.07.08-2.46.31-3.92.55a41.13,41.13,0,0,1-6.41.73l-1,0c-3.46-.07-7.71-.16-16.13-3.31-1-.54-2-1.08-2.94-1.62l1,.38a38.44,38.44,0,0,0,7.56,2.37,18.38,18.38,0,0,0,2.89.23l.76,0a.29.29,0,0,0,.27-.29.27.27,0,0,0-.29-.26,17.33,17.33,0,0,1-3.54-.21,37.31,37.31,0,0,1-7.45-2.34c-1-.37-2-.76-2.93-1.1-.41-.15-.81-.28-1.21-.41A39,39,0,0,0,858.22,462c-5.13-.88-14.68-.75-17.11,1.89-2.67,2.91,8.88,6,13,25.59,1,5,3.77,17,14.88,26.92,2.57,2.3,23.57,20.51,44.42,11.71C927.31,522.27,937.25,506.08,933,493.2Z" transform="translate(-18.75 -205.65)"/><g class="cls-48"><path class="cls-118" d="M933,493.2c-3.63-11-14.78-16.64-16.89-17.59a27.48,27.48,0,0,0-4-1.46,17.85,17.85,0,0,1,3.89,4c1.05,1.49,3.61,5.1,3,9.37-.55,4-3.34,5-6,9.36-4.54,7.26-1.28,11.63-4.23,15.72-5.22,7.21-23.14,4.37-34.45-.61a51.87,51.87,0,0,1-17.25-12.46A45.58,45.58,0,0,0,869,516.41c2.57,2.3,23.57,20.51,44.42,11.71C927.31,522.27,937.25,506.08,933,493.2Z" transform="translate(-18.75 -205.65)"/></g><path class="cls-119" d="M857.48,493.2s.4,8.34-7.73,9.59c-10,1.53-15-24.77-12.83-26.65,2.57-2.17,5.68,1.76,12-.71,2.68-1,4.55-4.95,6.52-1.32,2.24,4.14,2,12.07,2,12.07s2.09-2.31,2.8,0C861.26,489.2,859.22,491.48,857.48,493.2Z" transform="translate(-18.75 -205.65)"/><path class="cls-120" d="M837.37,466.78c-2.7,3.72-3.53,10.28-.85,13.12,3.84,4.08,12.51-2,17.17,2.94,2,2.19,2.44,5.59,3.3,5.41s.8-2.56.93-4.55c.72-11,3.2-12.57,1.94-15.49C857.3,462.26,842.93,459.15,837.37,466.78Z" transform="translate(-18.75 -205.65)"/><path class="cls-59" d="M811.21,740.1c.71-1,5.4-.49,7.76.81,4,2.18,6.28,6.07,7.3,6.6a6.38,6.38,0,0,0,4.71.23s1.54,3.13-1.24,4.64S806.81,746.24,811.21,740.1Z" transform="translate(-18.75 -205.65)"/></g></g></svg>